<?xml version="1.0" encoding="utf-8"?>
<!-- Generator: Adobe Illustrator 26.0.1, SVG Export Plug-In . SVG Version: 6.00 Build 0)  -->
<svg version="1.1" id="Layer_1" xmlns="http://www.w3.org/2000/svg" xmlns:xlink="http://www.w3.org/1999/xlink" x="0px" y="0px"
	 viewBox="0 0 1024 1024" style="enable-background:new 0 0 1024 1024;" xml:space="preserve">
<style type="text/css">
	.st0{fill:#DBEAFF;}
	.st1{fill:#EDF4FF;}
	.st2{fill:#479768;}
	.st3{fill:#47B168;}
	.st4{stroke:#000000;stroke-width:4.043;stroke-miterlimit:10;}
	.st5{fill:none;}
	.st6{fill:none;stroke:#000000;stroke-width:4.043;stroke-miterlimit:10;}
	.st7{fill:#ED1C24;}
</style>
<g>
	<g>
		<path class="st0" d="M441.1,32.7L323.3,422.5c-19.3-7.9-38.3-16.2-58.8-21.9c-23.5-6.6-48.5-9.7-73.4-9.2
			C263.3,216.8,350.1,64.4,441.1,32.7z"/>
		<path class="st1" d="M782.4,384.2c-27,3.2-53.8,9.6-79.2,17.2c-54.9,16.4-107.6,38.6-165.1,47.9c-62.4,10.2-128.8,4.5-187.1-16.1
			c-9.4-3.3-18.6-7-27.7-10.7L441.1,32.7c38-13.3,76.6-5.5,115.3,30.5C640.7,141.8,717,259,782.4,384.2z"/>
		<path class="st2" d="M323.3,422.5L149.7,997.3H0c0,0,77.4-330.6,191.2-605.9c24.9-0.5,49.9,2.6,73.4,9.2
			C285,406.3,304,414.6,323.3,422.5z"/>
		<path class="st3" d="M1024,997.3H149.7l173.6-574.8c9.1,3.8,18.3,7.4,27.7,10.7c58.3,20.6,124.6,26.3,187.1,16.1
			c57.5-9.4,110.2-31.5,165.1-47.9c25.5-7.6,52.3-14,79.2-17.2C931.8,670.2,1024,997.3,1024,997.3z"/>
	</g>
	<g>
		<path class="st4" d="M659.2,212.5c0,19.4-10.9,36.3-27,44.7c-10-22.8-32.8-38.7-59.2-38.7c-4.9,0-9.7,0.5-14.3,1.6
			c-0.4-2.5-0.6-5-0.6-7.6c0-19.6,11.2-36.6,27.5-45c10.3,22.2,32.7,37.6,58.8,37.6c4.8,0,9.5-0.5,14-1.5
			C658.9,206.4,659.2,209.4,659.2,212.5z"/>
		<path class="st5" d="M632.2,257.2c-7,3.7-15,5.8-23.5,5.8c-25.3,0-46.3-18.6-50-42.9c4.6-1,9.4-1.6,14.3-1.6
			C599.4,218.5,622.2,234.4,632.2,257.2z"/>
		<path class="st5" d="M658.4,203.5c-4.5,1-9.2,1.5-14,1.5c-26.1,0-48.5-15.4-58.8-37.6c6.9-3.5,14.7-5.5,23-5.5
			C633.5,161.9,654.2,179.9,658.4,203.5z"/>
		<path class="st6" d="M632.2,257.2c-7,3.7-15,5.8-23.5,5.8c-25.3,0-46.3-18.6-50-42.9c4.6-1,9.4-1.6,14.3-1.6
			C599.4,218.5,622.2,234.4,632.2,257.2z"/>
		<path class="st6" d="M658.4,203.5c-4.5,1-9.2,1.5-14,1.5c-26.1,0-48.5-15.4-58.8-37.6c6.9-3.5,14.7-5.5,23-5.5
			C633.5,161.9,654.2,179.9,658.4,203.5z"/>
	</g>
	<g>
		<path class="st4" d="M399.5,218.6c0,19.4,10.9,36.3,27,44.7c10-22.8,32.8-38.7,59.2-38.7c4.9,0,9.7,0.5,14.3,1.6
			c0.4-2.5,0.6-5,0.6-7.6c0-19.6-11.2-36.6-27.5-45c-10.3,22.2-32.7,37.6-58.8,37.6c-4.8,0-9.5-0.5-14-1.5
			C399.8,212.6,399.5,215.5,399.5,218.6z"/>
		<path class="st5" d="M426.5,263.3c7,3.7,15,5.8,23.5,5.8c25.3,0,46.3-18.6,50-42.9c-4.6-1-9.4-1.6-14.3-1.6
			C459.3,224.7,436.5,240.6,426.5,263.3z"/>
		<path class="st5" d="M400.3,209.7c4.5,1,9.2,1.5,14,1.5c26.1,0,48.5-15.4,58.8-37.6c-6.9-3.5-14.7-5.5-23-5.5
			C425.2,168.1,404.5,186,400.3,209.7z"/>
		<path class="st6" d="M426.5,263.3c7,3.7,15,5.8,23.5,5.8c25.3,0,46.3-18.6,50-42.9c-4.6-1-9.4-1.6-14.3-1.6
			C459.3,224.7,436.5,240.6,426.5,263.3z"/>
		<path class="st6" d="M400.3,209.7c4.5,1,9.2,1.5,14,1.5c26.1,0,48.5-15.4,58.8-37.6c-6.9-3.5-14.7-5.5-23-5.5
			C425.2,168.1,404.5,186,400.3,209.7z"/>
	</g>
	<g>
		<path class="st7" d="M598.4,326.4c1.3,15.9-6.3,31.9-18.5,42.1c-12.2,10.3-28.4,15.1-44.4,14.9c-9-0.1-18.5-2-24.9-8.3
			c-4.1-4-6.4-9.4-8.7-14.6c-4-9.2-8-18.3-12-27.5l0.7-1.7c40.7,23.8,98.4,12,126.5-25.8"/>
		<g>
			<path d="M595.6,326.4c0.8,10.1-2,20.1-7.5,28.6c-5.5,8.6-13.5,15.2-22.8,19.6c-9.4,4.4-20,6.4-30.4,6.2
				c-9.8-0.2-19.9-2.8-25.6-11.5c-3.5-5.4-5.7-11.6-8.3-17.4c-2.9-6.7-5.9-13.4-8.8-20.2c0,0.9,0,1.8,0,2.8c0.2-0.6,0.5-1.1,0.7-1.7
				c-1.3,0.3-2.5,0.7-3.8,1c16.3,9.5,35.4,13.6,54.2,12.5c18.7-1,37.3-7,52.9-17.4c8.9-6,16.7-13.3,23.1-21.9c0.9-1.2,0.2-3.1-1-3.8
				c-1.4-0.8-2.9-0.2-3.8,1c-10.6,14.2-25.8,24.7-42.3,30.7c-16.7,6-35,7.8-52.3,4.5c-9.9-1.9-19.4-5.3-28.1-10.3
				c-1.2-0.7-3.1-0.4-3.8,1c-0.2,0.5-0.5,1.1-0.7,1.6c-0.8,1.9,0.4,3.8,1.2,5.5c1.4,3.3,2.9,6.6,4.3,9.9c2.7,6.2,5.3,12.4,8.1,18.5
				c2.5,5.5,5.8,10.6,10.7,14.2c4.5,3.3,10,5,15.4,5.8c22.7,3.3,48.1-5,62.4-23.4c7.8-10.1,12.4-22.9,11.4-35.8
				c-0.1-1.5-1.2-2.7-2.7-2.7C597,323.7,595.5,324.9,595.6,326.4L595.6,326.4z"/>
		</g>
	</g>
</g>
</svg>
