<?xml version="1.0" encoding="utf-8"?>
<!-- Generator: Adobe Illustrator 26.0.1, SVG Export Plug-In . SVG Version: 6.00 Build 0)  -->
<svg version="1.1" id="Layer_1" xmlns="http://www.w3.org/2000/svg" xmlns:xlink="http://www.w3.org/1999/xlink" x="0px" y="0px"
	 viewBox="0 0 1024 1024" style="enable-background:new 0 0 1024 1024;" xml:space="preserve">
<style type="text/css">
	.st0{fill:none;stroke:#808080;stroke-width:16;stroke-linecap:round;stroke-linejoin:round;stroke-miterlimit:10;}
	.st1{fill:#C1272D;}
	.st2{stroke:#000000;stroke-width:4;stroke-miterlimit:10;}
	.st3{fill:none;}
	.st4{fill:none;stroke:#000000;stroke-width:4;stroke-miterlimit:10;}
	.st5{font-family:'PatrickHand-Regular';}
	.st6{font-size:143.6994px;}
</style>
<g>
	<g>
		<path class="st0" d="M8.5,764.5C8.2,476.6,236.9,240.1,513.5,241c275.1,0.8,501.8,236.1,502,522.5"/>
		<g>
			<line class="st0" x1="8.5" y1="764.5" x2="166.5" y2="764.5"/>
			<line class="st0" x1="511.5" y1="240.5" x2="511.5" y2="398.5"/>
			<line class="st0" x1="185.6" y1="374.6" x2="297.4" y2="486.4"/>
			<line class="st0" x1="87.6" y1="495.6" x2="227.4" y2="569.4"/>
			<line class="st0" x1="330.6" y1="281" x2="396.4" y2="424.6"/>
			<line class="st0" x1="27.3" y1="629.6" x2="181.7" y2="663.4"/>
			<line class="st0" x1="1015.5" y1="764.5" x2="857.5" y2="764.5"/>
			<line class="st0" x1="838.4" y1="374.6" x2="726.6" y2="486.4"/>
			<line class="st0" x1="936.4" y1="495.6" x2="796.6" y2="569.4"/>
			<line class="st0" x1="693.4" y1="281" x2="627.6" y2="424.6"/>
			<line class="st0" x1="996.7" y1="629.6" x2="842.3" y2="663.4"/>
		</g>
	</g>
	<path class="st1" d="M534.2,707.6l-8.4-5.6C528.8,703.4,531.7,705.3,534.2,707.6z"/>
	<path class="st1" d="M493.3,764.2c-16.5-3-28.3-18.3-26.8-35.1c0.9-10.1,6.2-18.6,13.8-23.9l0,0l251.5-193.1
		c1.1-0.8,2.5,0.6,1.5,1.6L526.8,749.5l-6.7,7.6C513,763.1,503.3,766,493.3,764.2z"/>
	<g>
		<path class="st2" d="M375.8,552.1c0,13,7.3,24.2,18,29.8c6.7-15.2,21.9-25.8,39.5-25.8c3.3,0,6.5,0.4,9.5,1.1
			c0.2-1.7,0.4-3.4,0.4-5.1c0-13.1-7.5-24.4-18.3-30c-6.8,14.8-21.8,25.1-39.2,25.1c-3.2,0-6.3-0.4-9.4-1
			C376,548.1,375.8,550.1,375.8,552.1z"/>
		<path class="st3" d="M393.8,581.9c4.7,2.5,10,3.9,15.7,3.9c16.9,0,30.9-12.4,33.3-28.6c-3.1-0.7-6.2-1.1-9.5-1.1
			C415.7,556.1,400.5,566.7,393.8,581.9z"/>
		<path class="st3" d="M376.3,546.1c3,0.7,6.1,1,9.4,1c17.4,0,32.4-10.3,39.2-25.1c-4.6-2.4-9.8-3.7-15.4-3.7
			C392.9,518.4,379.1,530.3,376.3,546.1z"/>
		<path class="st4" d="M393.8,581.9c4.7,2.5,10,3.9,15.7,3.9c16.9,0,30.9-12.4,33.3-28.6c-3.1-0.7-6.2-1.1-9.5-1.1
			C415.7,556.1,400.5,566.7,393.8,581.9z"/>
		<path class="st4" d="M376.3,546.1c3,0.7,6.1,1,9.4,1c17.4,0,32.4-10.3,39.2-25.1c-4.6-2.4-9.8-3.7-15.4-3.7
			C392.9,518.4,379.1,530.3,376.3,546.1z"/>
	</g>
	<text transform="matrix(1 0 0 1 570.0576 586.166)" class="st5 st6">&lt;</text>
</g>
</svg>
