<svg id="Layer_1" data-name="Layer 1" xmlns="http://www.w3.org/2000/svg" xmlns:xlink="http://www.w3.org/1999/xlink" viewBox="0 0 1013.76 790.24"><defs><style>.cls-1{fill:url(#linear-gradient);}.cls-2{fill:url(#linear-gradient-2);}.cls-3{fill:url(#linear-gradient-3);}.cls-4{fill:#0091d7;}</style><linearGradient id="linear-gradient" x1="5.12" y1="511.99" x2="683.81" y2="511.99" gradientUnits="userSpaceOnUse"><stop offset="0" stop-color="#fff" stop-opacity="0"/><stop offset="0" stop-color="#fffdfb" stop-opacity="0.02"/><stop offset="0.04" stop-color="#feebd4" stop-opacity="0.2"/><stop offset="0.09" stop-color="#fddab1" stop-opacity="0.37"/><stop offset="0.14" stop-color="#fccb92" stop-opacity="0.52"/><stop offset="0.19" stop-color="#fcbe76" stop-opacity="0.65"/><stop offset="0.25" stop-color="#fbb360" stop-opacity="0.76"/><stop offset="0.32" stop-color="#fbaa4d" stop-opacity="0.85"/><stop offset="0.4" stop-color="#faa33f" stop-opacity="0.92"/><stop offset="0.49" stop-color="#fa9e35" stop-opacity="0.97"/><stop offset="0.63" stop-color="#fa9c30" stop-opacity="0.99"/><stop offset="1" stop-color="#fa9b2e"/></linearGradient><linearGradient id="linear-gradient-2" x1="5.13" y1="851.66" x2="532.64" y2="851.66" xlink:href="#linear-gradient"/><linearGradient id="linear-gradient-3" x1="5.13" y1="172.34" x2="533.07" y2="172.34" xlink:href="#linear-gradient"/></defs><g id="EfficientX"><g id="Letter_E" data-name="Letter E"><path class="cls-1" d="M683.81,465.77V556a20.22,20.22,0,0,0-3.36,1.37,18.07,18.07,0,0,0-7.31,6.63L671,567.46H5.12V456.53H672.36l.77,1.27A19,19,0,0,0,683.81,465.77Z" transform="translate(-5.12 -116.88)"/><path class="cls-2" d="M532.64,796.2l-57.32,94.73c-6,9.94-18.23,16.19-31.61,16.19H5.13V796.2Z" transform="translate(-5.12 -116.88)"/><path class="cls-3" d="M533.07,227.8H5.13V116.88H443.77c13.34,0,25.55,6.23,31.57,16.12l57.72,94.79Z" transform="translate(-5.12 -116.88)"/></g><g id="Letter_X" data-name="Letter X"><path class="cls-4" d="M1015,864.4,807.17,523.63a25.29,25.29,0,0,1-2.73-6.18,24,24,0,0,1-.93-6.56,24.34,24.34,0,0,1,3.7-12.8l207.6-338.43c12-19.57-5.07-42.78-31.51-42.78H937.93c-13.34,0-25.55,6.23-31.57,16.12L708.57,457.8c-3.38,5.55-10.21,9-17.68,9h-.07a23.15,23.15,0,0,1-7-1.07,19,19,0,0,1-10.68-8l-.77-1.27L533.07,227.8h0L475.34,133c-6-9.89-18.23-16.12-31.57-16.12H398.39c-26.41,0-43.51,23.21-31.5,42.78l41.79,68.13h0L549,456.53l25.5,41.56a25,25,0,0,1,2.73,6.2,23.82,23.82,0,0,1,.94,6.6,24.49,24.49,0,0,1-3.65,12.74l-26.74,43.83L408.28,796.2,366.7,864.4c-11.94,19.56,5.16,42.72,31.55,42.72h45.46c13.38,0,25.61-6.25,31.61-16.19l57.32-94.73L671,567.46l2.11-3.48a18.07,18.07,0,0,1,7.31-6.63,20.22,20.22,0,0,1,3.36-1.37,23,23,0,0,1,7-1.09c7.49,0,14.35,3.52,17.72,9.09L906.39,890.93c6,9.94,18.24,16.19,31.61,16.19h45.46C1009.85,907.12,1027,884,1015,864.4Z" transform="translate(-5.12 -116.88)"/></g></g></svg>