<?xml version="1.0" encoding="utf-8"?>
<!-- Generator: Adobe Illustrator 26.0.1, SVG Export Plug-In . SVG Version: 6.00 Build 0)  -->
<svg version="1.1" id="Layer_1" xmlns="http://www.w3.org/2000/svg" xmlns:xlink="http://www.w3.org/1999/xlink" x="0px" y="0px"
	 viewBox="0 0 1024 1024" style="enable-background:new 0 0 1024 1024;" xml:space="preserve">
<style type="text/css">
	.st0{fill:none;stroke:#000000;stroke-miterlimit:10;}
	.st1{fill:none;}
	.st2{fill:url(#SVGID_1_);}
	.st3{fill:url(#SVGID_00000117657866558113357710000009625519003349419671_);}
</style>
<g>
	<g>
		<path class="st0" d="M941.2,326.8"/>
	</g>
</g>
<line class="st1" x1="861.5" y1="876.5" x2="436.5" y2="876.5"/>
<linearGradient id="SVGID_1_" gradientUnits="userSpaceOnUse" x1="269.8022" y1="891.6243" x2="269.8022" y2="252.364">
	<stop  offset="0" style="stop-color:#3074FF"/>
	<stop  offset="0.2484" style="stop-color:#3B98FF"/>
	<stop  offset="0.5816" style="stop-color:#48C2FE"/>
	<stop  offset="0.8435" style="stop-color:#50DBFE"/>
	<stop  offset="1" style="stop-color:#53E5FE"/>
</linearGradient>
<path class="st2" d="M424.4,252.4c-128.3-0.7-253.5,86.2-336.1,192.4C56.2,486,26.8,534,26.2,586.9c-0.2,16.9,3.3,35.1,15.3,46
	c8.9,8.2,21.2,10.9,32.9,12.5c64.3,8.7,129.8-9.2,194.6-4.8c15.6,1.1,33.4,4.9,40.9,19.4c6.1,11.7,3.3,26.3,0.6,39.6
	c-7.4,36.3-4.4,28.3-14.4,63.9c-7.3,25.9-26.8,110.1-11.7,124.7c2.9,2.8,7.1,3.7,11,3.1c23.5-3.6,63.8-44.2,76.5-58.9
	c28-32.4,105.6-122.2,132.1-199.2c10.4-30.3,16.4-68.3-4.7-90.8c-8.4-9-19.9-13.9-31.5-17.1c-76.8-21.4-158.6,21.9-237.9,13.9
	c-15.1-1.5-32.2-6.5-33.6-26.6c-0.6-8.8,2.1-17.7,7.1-24.9c61.6-89.7,136.3-169.3,220.6-235"/>
<linearGradient id="SVGID_00000142136993549478952190000001422027325343953329_" gradientUnits="userSpaceOnUse" x1="910.1816" y1="647.2614" x2="630.1339" y2="162.2045">
	<stop  offset="0" style="stop-color:#3074FF"/>
	<stop  offset="0.2484" style="stop-color:#3B98FF"/>
	<stop  offset="0.5816" style="stop-color:#48C2FE"/>
	<stop  offset="0.8435" style="stop-color:#50DBFE"/>
	<stop  offset="1" style="stop-color:#53E5FE"/>
</linearGradient>
<path style="fill:url(#SVGID_00000142136993549478952190000001422027325343953329_);" d="M482.2,251.9
	c148.9-109.6,347.6-149.3,515.6-96.7c-49.3,14.2-98.6,28.3-147.9,42.5c-13,3.7-26.7,7.9-36.6,18.1c-12.2,12.6-16.3,31.6-19.9,49.4
	c-38,185.7-93.6,367.3-162,543c8-163.1,15.9-326.3,23.9-489.4c0.6-11.8,0.7-25.2-6.8-33.3c-5.5-6-13.8-7.6-21.6-8.9
	c-48.1-8.1-96.2-16.1-144.3-24.2"/>
</svg>
