<svg id="Layer_1" data-name="Layer 1" xmlns="http://www.w3.org/2000/svg" viewBox="0 0 1024.04 983.99"><defs><style>.cls-1{fill:#0096df;}</style></defs><path class="cls-1" d="M620.6,745.4a14.58,14.58,0,0,1,10.2-22.3c13.8-2.2,27.1-4.6,40.1-7.9,100.2-25.7,156.5-91.1,165.6-192,2.9-32.6,4.3-64.9-3.8-97a181.48,181.48,0,0,0-39.5-75.6c-4.7-5.4-6-9.8-3.8-16.9,12.3-39.4,8.2-78.3-5-116.9-2.4-6.9-6.6-9.1-13.6-9-21.5.6-41.6,6.8-61.1,14.9A358.57,358.57,0,0,0,649,255.4c-5.8,3.8-10.9,5-18,3.3q-118.8-28.95-237.7,0c-7.1,1.7-12.2.4-18-3.3-33.6-21.2-68.1-40.3-108.5-46.4-22-3.3-24.2-2.3-30.2,18.1-10.7,36.2-12.7,72.6-1,109,1.5,4.5,1.2,8-2.2,11.9-46.1,52.6-54,114.4-45.2,180.2,6,44.8,19.4,86.7,50.1,121.8,34.9,40,81.5,59.2,132.7,69.6,7.2,1.5,14.4,2.7,21.8,3.8a14.65,14.65,0,0,1,12.5,16.5,15.65,15.65,0,0,1-2,5.6A119.31,119.31,0,0,0,387,791.3c-.6,4.3-5,4.9-8.2,6.2-57.1,23.5-108,7.7-141-43.9-17.1-26.6-39.6-46-72.3-52a45.25,45.25,0,0,0-22.8,1.6c-8.2,2.8-9.8,8.3-4.3,14.6A59,59,0,0,0,152,729.6c26,15,44.7,37,54.1,64,19.8,57.3,76.5,82.3,138.8,77.2,10.5-.9,21-2.2,31.4-4,6.1-1.1,8,.6,8,6.5,0,28.6.8,57.1.4,85.7-.3,20.2-16.8,29.7-38.2,22.7-43-14.1-83.6-33.2-120.5-58.9C70.1,814.2-7.1,665.7.5,479.4,10.1,244.8,184.4,52.2,420.9,8.4c266.7-49.5,534.7,125,591.1,384.7,52.4,241.2-69.9,476.8-298.2,574.5-12.2,5.2-24.8,10-37.5,14.1-22,7.1-37.4-3.7-37.4-26.1,0-39.7,0-79.4.7-119C640,804.4,638.1,773,620.6,745.4Z" transform="translate(0.01 0)"/></svg>