<svg id="Layer_1" data-name="Layer 1" xmlns="http://www.w3.org/2000/svg" viewBox="0 0 1024 1024"><defs><style>.cls-1{fill:#0096df;}</style></defs><path class="cls-1" d="M0,780.5v-537C0,109,109,0,243.5,0h537C915,0,1024,109,1024,243.5v537C1024,915,915,1024,780.5,1024h-537C109,1024,0,915,0,780.5Zm290.8-50c0,2.7-.2,4.7,0,6.5,3.6,35.4,16.6,66.4,42.5,91.3,28.6,27.5,63.8,43,101.4,53.3,58.9,16.1,118,13,176.4-2.4,67-17.7,111-60.2,131.6-126.4,12.2-39.2,16.9-79.8,17.1-120.5.7-160,.4-320,.5-480,0-1.9-.2-3.7-.3-5.9H690v73.1c-2.3-2.8-3.4-4.2-4.7-5.6-8.3-9.2-15.9-19.1-25-27.4-55.6-51.1-121.5-67.8-194.5-53-74.2,15.1-131.6,55.4-164,125-35.1,75.2-41.9,154-20.7,234.6,8.3,31.4,18.2,62.4,37.2,89.3,42.6,60.3,103.3,87.3,175,93,29.4,2.3,58.2-2.2,86.7-9.6s54.4-19.8,76.7-39.3c11-9.6,21.8-19.3,33.4-29.6-.5,8.6-.6,16.7-1.4,24.7-3.3,31.6-5.3,63.4-10.6,94.6-6.3,37.3-22.8,70.2-55.9,91.1-50.8,32.2-105.6,40-162.9,20.1-46.3-16.1-79.7-47.5-100.8-91.8-2.5-5.3-5.5-6.6-13.1-5.5a153.21,153.21,0,0,1-43.3.1c-3.9-.3-6.8.1-11.3.3Z"/><path class="cls-1" d="M695.6,407.7c.2,32.3-3.4,61.3-13.1,89.1C660.2,561,616.7,602.4,548.8,613.7c-53.6,9-103.7-.6-145.8-38-25.1-22.3-41-50.5-50.6-82.3-20.9-69.4-19.1-138.3,8.9-205.2,21.3-51,58.7-86.2,113.5-99.3,58.5-14,112-3.1,157,38.3,29.2,26.9,45.1,61.7,53.9,99.8C692,354.5,695.8,382.3,695.6,407.7Z"/></svg>