<?xml version="1.0" encoding="utf-8"?>
<!-- Generator: Adobe Illustrator 26.0.1, SVG Export Plug-In . SVG Version: 6.00 Build 0)  -->
<svg version="1.1" id="Layer_1" xmlns="http://www.w3.org/2000/svg" xmlns:xlink="http://www.w3.org/1999/xlink" x="0px" y="0px"
	 viewBox="0 0 1024 1024" style="enable-background:new 0 0 1024 1024;" xml:space="preserve">
<style type="text/css">
	.st0{fill:#2B9FFF;}
	.st1{fill:#FBB03B;}
	.st2{fill:#3074FF;}
	.st3{fill:#3075FF;}
	.st4{fill:#3176FF;}
	.st5{fill:#3177FF;}
	.st6{fill:#3178FF;}
	.st7{fill:#3179FF;}
	.st8{fill:#3279FF;}
	.st9{fill:#327AFF;}
	.st10{fill:#327BFF;}
	.st11{fill:#327CFF;}
	.st12{fill:#337CFF;}
	.st13{fill:#337DFF;}
	.st14{fill:#337EFF;}
	.st15{fill:#337FFF;}
	.st16{fill:#347FFF;}
	.st17{fill:#3480FF;}
	.st18{fill:#3481FF;}
	.st19{fill:#3482FF;}
	.st20{fill:#3583FF;}
	.st21{fill:#3584FF;}
	.st22{fill:#3585FF;}
	.st23{fill:#3586FF;}
	.st24{fill:#3686FF;}
	.st25{fill:#3687FF;}
	.st26{fill:#3688FF;}
	.st27{fill:#3689FF;}
	.st28{fill:#3789FF;}
	.st29{fill:#378AFF;}
	.st30{fill:#378BFF;}
	.st31{fill:#378CFF;}
	.st32{fill:#388CFF;}
	.st33{fill:#388DFF;}
	.st34{fill:#388EFF;}
	.st35{fill:#388FFF;}
	.st36{fill:#398FFF;}
	.st37{fill:#3990FF;}
	.st38{fill:#3991FF;}
	.st39{fill:#3992FF;}
	.st40{fill:#3A93FF;}
	.st41{fill:#3A94FF;}
	.st42{fill:#3A95FF;}
	.st43{fill:#3A96FF;}
	.st44{fill:#3B96FF;}
	.st45{fill:#3B97FF;}
	.st46{fill:#3B98FF;}
	.st47{fill:#3B99FF;}
	.st48{fill:#3C99FF;}
	.st49{fill:#3C9AFF;}
	.st50{fill:#3C9BFF;}
	.st51{fill:#3C9CFF;}
	.st52{fill:#3D9CFF;}
	.st53{fill:#3D9DFF;}
	.st54{fill:#3D9EFF;}
	.st55{fill:#3D9FFF;}
	.st56{fill:#3EA0FF;}
	.st57{fill:#3EA1FF;}
	.st58{fill:#3EA2FF;}
	.st59{fill:#3EA3FF;}
	.st60{fill:#3FA3FF;}
	.st61{fill:#3FA4FF;}
	.st62{fill:#3FA5FF;}
	.st63{fill:#3FA6FF;}
	.st64{fill:#40A6FF;}
	.st65{fill:#40A7FF;}
	.st66{fill:#40A8FF;}
	.st67{fill:#40A9FF;}
	.st68{fill:#41A9FF;}
	.st69{fill:#41AAFF;}
	.st70{fill:#41ABFF;}
	.st71{fill:#41ACFF;}
	.st72{fill:#42ADFE;}
	.st73{fill:#42AEFE;}
	.st74{fill:#42AFFE;}
	.st75{fill:#42B0FE;}
	.st76{fill:#43B0FE;}
	.st77{fill:#43B1FE;}
	.st78{fill:#43B2FE;}
	.st79{fill:#43B3FE;}
	.st80{fill:#44B3FE;}
	.st81{fill:#44B4FE;}
	.st82{fill:#44B5FE;}
	.st83{fill:#44B6FE;}
	.st84{fill:#45B6FE;}
	.st85{fill:#45B7FE;}
	.st86{fill:#45B8FE;}
	.st87{fill:#45B9FE;}
	.st88{fill:#46BAFE;}
	.st89{fill:#46BBFE;}
	.st90{fill:#46BCFE;}
	.st91{fill:#46BDFE;}
	.st92{fill:#47BDFE;}
	.st93{fill:#47BEFE;}
	.st94{fill:#47BFFE;}
	.st95{fill:#47C0FE;}
	.st96{fill:#48C0FE;}
	.st97{fill:#48C1FE;}
	.st98{fill:#48C2FE;}
	.st99{fill:#48C3FE;}
	.st100{fill:#49C3FE;}
	.st101{fill:#49C4FE;}
	.st102{fill:#49C5FE;}
	.st103{fill:#49C6FE;}
	.st104{fill:#4AC7FE;}
	.st105{fill:#4AC8FE;}
	.st106{fill:#4AC9FE;}
	.st107{fill:#4ACAFE;}
	.st108{fill:#4BCAFE;}
	.st109{fill:#4BCBFE;}
	.st110{fill:#4BCCFE;}
	.st111{fill:#4BCDFE;}
	.st112{fill:#4CCDFE;}
	.st113{fill:#4CCEFE;}
	.st114{fill:#4CCFFE;}
	.st115{fill:#4CD0FE;}
	.st116{fill:#4DD0FE;}
	.st117{fill:#4DD1FE;}
	.st118{fill:#4DD2FE;}
	.st119{fill:#4DD3FE;}
	.st120{fill:#4ED3FE;}
	.st121{fill:#4ED4FE;}
	.st122{fill:#4ED5FE;}
	.st123{fill:#4ED6FE;}
	.st124{fill:#4FD7FE;}
	.st125{fill:#4FD8FE;}
	.st126{fill:#4FD9FE;}
	.st127{fill:#4FDAFE;}
	.st128{fill:#50DAFE;}
	.st129{fill:#50DBFE;}
	.st130{fill:#50DCFE;}
	.st131{fill:#50DDFE;}
	.st132{fill:#51DDFE;}
	.st133{fill:#51DEFE;}
	.st134{fill:#51DFFE;}
	.st135{fill:#51E0FE;}
	.st136{fill:#52E0FE;}
	.st137{fill:#52E1FE;}
	.st138{fill:#52E2FE;}
	.st139{fill:#52E3FE;}
	.st140{fill:#53E4FE;}
	.st141{fill:#53E5FE;}
	.st142{fill:#3076FF;}
	.st143{fill:#3483FF;}
	.st144{fill:#3993FF;}
	.st145{fill:#3DA0FF;}
	.st146{fill:#42ADFF;}
	.st147{fill:#46B9FE;}
	.st148{fill:#4AC6FE;}
	.st149{fill:#4FD6FE;}
	.st150{fill:#53E3FE;}
</style>
<g>
	<path class="st0" d="M243.3,1014c-18.4,1.5-35.1-4-50.1-16.7c-15-12.7-23.2-28.2-24.7-46.6l-49.7-598.5c-1.5-18.4,4-35.1,16.7-50.1
		c12.7-15,28.2-23.2,46.6-24.7l126.6-10.5l-1-11.5c-4-48.3,9.3-90.6,39.9-126.7s70.1-56.2,118.4-60.2c48.3-4,90.6,9.3,126.7,39.9
		s56.2,70.1,60.2,118.4l1,11.5l126.6-10.5c18.4-1.5,35.1,4,50.1,16.7c15,12.7,23.2,28.2,24.7,46.6l49.7,598.5
		c1.5,18.4-4,35.1-16.7,50.1c-12.7,15-28.2,23.2-46.6,24.7L243.3,1014z M237.6,945l598.5-49.7l-49.7-598.5l-126.6,10.5l8.6,103.6
		c0.8,10-1.7,18.5-7.7,25.6c-6,7.1-14,11-23.9,11.8c-10,0.8-18.5-1.7-25.6-7.7c-7.1-6-11-14-11.8-23.9L590.8,313l-207.2,17.2
		l8.6,103.6c0.8,10-1.7,18.5-7.7,25.6c-6,7.1-14,11-23.9,11.8s-18.5-1.7-25.6-7.7c-7.1-6-11-14-11.8-23.9l-8.6-103.6l-126.6,10.5
		L237.6,945z M377.8,261.2L585,244l-1-11.5c-2.4-29.2-14.4-52.9-36-71.2c-21.6-18.3-47-26.2-76.1-23.8c-29.2,2.4-52.9,14.4-71.2,36
		c-18.3,21.6-26.2,47-23.8,76.1L377.8,261.2z M237.6,945l-49.7-598.5L237.6,945z"/>
	<path class="st1" d="M724.5,17l16.2,22.2c3.4,4.7,9,7.4,14.8,7.3l27.5-0.8c14.7-0.4,23.5,16.2,14.9,28.2l-16.1,22.3
		c-3.4,4.7-4.3,10.9-2.3,16.4l9.2,25.9c4.9,13.9-8.2,27.4-22.2,22.9l-26.2-8.4c-5.6-1.8-11.7-0.7-16.3,2.8l-21.8,16.8
		c-11.7,9-28.6,0.7-28.6-14l-0.1-27.5c0-5.8-2.9-11.3-7.7-14.6l-22.7-15.6c-12.1-8.3-9.5-26.9,4.5-31.5l26.2-8.6
		c5.6-1.8,9.9-6.3,11.5-11.9l7.8-26.4C697.2,8.3,715.8,5.1,724.5,17z"/>
	<path class="st1" d="M313.8,768.7l13.8,18.8c2.9,4,7.6,6.3,12.6,6.2l23.3-0.6c12.5-0.3,19.9,13.8,12.6,23.9l-13.7,18.9
		c-2.9,4-3.6,9.2-2,13.9l7.8,22c4.2,11.8-6.9,23.2-18.8,19.4l-22.2-7.2c-4.7-1.5-9.9-0.6-13.8,2.4L295,900.6
		c-9.9,7.6-24.2,0.6-24.2-11.9l-0.1-23.3c0-5-2.5-9.6-6.5-12.4l-19.2-13.2c-10.3-7-8-22.8,3.8-26.7l22.2-7.3
		c4.7-1.5,8.4-5.3,9.8-10.1l6.6-22.4C290.8,761.4,306.5,758.7,313.8,768.7z"/>
	<g>
		<g>
			<circle class="st2" cx="471.1" cy="538.8" r="6.7"/>
			<circle class="st2" cx="469.8" cy="540" r="6.7"/>
			<circle class="st2" cx="468.5" cy="541.2" r="6.7"/>
			<circle class="st3" cx="467.3" cy="542.4" r="6.7"/>
			<circle class="st3" cx="466" cy="543.7" r="6.7"/>
			<circle class="st3" cx="464.7" cy="544.9" r="6.7"/>
			<circle class="st3" cx="463.5" cy="546.1" r="6.7"/>
			<circle class="st3" cx="462.2" cy="547.4" r="6.7"/>
			<circle class="st4" cx="460.9" cy="548.6" r="6.7"/>
			<circle class="st4" cx="459.7" cy="549.8" r="6.7"/>
			<circle class="st4" cx="458.5" cy="551.1" r="6.7"/>
			<circle class="st4" cx="457.2" cy="552.4" r="6.7"/>
			<circle class="st4" cx="456" cy="553.6" r="6.7"/>
			<circle class="st5" cx="454.8" cy="554.9" r="6.7"/>
			<circle class="st5" cx="453.5" cy="556.2" r="6.7"/>
			<circle class="st5" cx="452.3" cy="557.5" r="6.7"/>
			<circle class="st5" cx="451.1" cy="558.8" r="6.7"/>
			<circle class="st5" cx="449.9" cy="560.1" r="6.7"/>
			<circle class="st6" cx="448.7" cy="561.4" r="6.7"/>
			<circle class="st6" cx="447.5" cy="562.7" r="6.7"/>
			<circle class="st6" cx="446.3" cy="564" r="6.7"/>
			<circle class="st6" cx="445.1" cy="565.3" r="6.7"/>
			<circle class="st6" cx="443.9" cy="566.6" r="6.7"/>
			<circle class="st7" cx="442.7" cy="567.9" r="6.7"/>
			<circle class="st8" cx="441.6" cy="569.3" r="6.7"/>
			<circle class="st8" cx="440.4" cy="570.6" r="6.7"/>
			<circle class="st8" cx="439.2" cy="571.9" r="6.7"/>
			<circle class="st8" cx="438" cy="573.3" r="6.7"/>
			<circle class="st9" cx="436.9" cy="574.6" r="6.7"/>
			<circle class="st9" cx="435.7" cy="576" r="6.7"/>
			<circle class="st9" cx="434.6" cy="577.3" r="6.7"/>
			<circle class="st9" cx="433.4" cy="578.7" r="6.7"/>
			<circle class="st9" cx="432.3" cy="580" r="6.7"/>
			<circle class="st10" cx="431.2" cy="581.4" r="6.7"/>
			<circle class="st10" cx="430.1" cy="582.8" r="6.7"/>
			<circle class="st10" cx="428.9" cy="584.2" r="6.7"/>
			<circle class="st10" cx="427.8" cy="585.6" r="6.7"/>
			<circle class="st10" cx="426.7" cy="587" r="6.7"/>
			<circle class="st11" cx="425.6" cy="588.3" r="6.7"/>
			<circle class="st11" cx="424.5" cy="589.7" r="6.7"/>
			<circle class="st12" cx="423.4" cy="591.1" r="6.7"/>
			<circle class="st12" cx="422.3" cy="592.6" r="6.7"/>
			<circle class="st12" cx="421.2" cy="594" r="6.7"/>
			<circle class="st13" cx="420.1" cy="595.4" r="6.7"/>
			<circle class="st13" cx="419" cy="596.8" r="6.7"/>
			<circle class="st13" cx="417.9" cy="598.2" r="6.7"/>
			<circle class="st13" cx="416.9" cy="599.6" r="6.7"/>
			<circle class="st13" cx="415.8" cy="601.1" r="6.7"/>
			<circle class="st14" cx="414.8" cy="602.5" r="6.7"/>
			<circle class="st14" cx="413.7" cy="604" r="6.7"/>
			<circle class="st14" cx="412.7" cy="605.4" r="6.7"/>
			<circle class="st14" cx="411.6" cy="606.8" r="6.7"/>
			<circle class="st14" cx="410.6" cy="608.3" r="6.7"/>
			<circle class="st15" cx="409.6" cy="609.8" r="6.7"/>
			<circle class="st15" cx="408.6" cy="611.2" r="6.7"/>
			<circle class="st15" cx="407.5" cy="612.7" r="6.7"/>
			<circle class="st16" cx="406.5" cy="614.2" r="6.7"/>
			<circle class="st17" cx="405.5" cy="615.7" r="6.8"/>
			<circle class="st17" cx="404.5" cy="617.1" r="6.8"/>
			<circle class="st17" cx="403.5" cy="618.6" r="6.8"/>
			<circle class="st17" cx="402.5" cy="620.1" r="6.8"/>
			<circle class="st17" cx="401.5" cy="621.6" r="6.8"/>
			<circle class="st18" cx="400.5" cy="623.1" r="6.8"/>
			<circle class="st18" cx="399.6" cy="624.6" r="6.8"/>
			<circle class="st18" cx="398.6" cy="626.1" r="6.8"/>
			<circle class="st18" cx="397.6" cy="627.6" r="6.8"/>
			<circle class="st18" cx="396.7" cy="629.1" r="6.8"/>
			<circle class="st19" cx="395.7" cy="630.6" r="6.8"/>
			<circle class="st19" cx="394.8" cy="632.1" r="6.8"/>
			<circle class="st19" cx="393.8" cy="633.7" r="6.8"/>
			<circle class="st19" cx="392.8" cy="635.2" r="6.8"/>
			<circle class="st19" cx="391.9" cy="636.7" r="6.8"/>
			<circle class="st20" cx="391" cy="638.3" r="6.8"/>
			<circle class="st20" cx="390" cy="639.8" r="6.8"/>
			<circle class="st20" cx="389.2" cy="641.3" r="6.8"/>
			<circle class="st20" cx="388.2" cy="642.9" r="6.8"/>
			<circle class="st20" cx="387.3" cy="644.4" r="6.8"/>
			<circle class="st21" cx="386.4" cy="646" r="6.8"/>
			<circle class="st21" cx="385.5" cy="647.5" r="6.8"/>
			<circle class="st21" cx="384.7" cy="649.1" r="6.8"/>
			<circle class="st21" cx="383.8" cy="650.6" r="6.8"/>
			<circle class="st21" cx="382.9" cy="652.2" r="6.8"/>
			<circle class="st22" cx="382.1" cy="653.8" r="6.8"/>
			<circle class="st22" cx="381.5" cy="655.5" r="6.8"/>
			<circle class="st22" cx="381" cy="657.2" r="6.8"/>
			<circle class="st22" cx="380.7" cy="658.9" r="6.8"/>
			<circle class="st22" cx="380.6" cy="660.7" r="6.8"/>
			<circle class="st23" cx="380.7" cy="662.5" r="6.8"/>
			<circle class="st24" cx="381" cy="664.5" r="6.8"/>
			<circle class="st24" cx="381.7" cy="666.4" r="6.8"/>
			<circle class="st24" cx="382.5" cy="668.1" r="6.8"/>
			<circle class="st24" cx="383.6" cy="669.5" r="6.8"/>
			<circle class="st25" cx="384.8" cy="670.7" r="6.8"/>
			<circle class="st25" cx="386.2" cy="671.6" r="6.8"/>
			<circle class="st25" cx="387.7" cy="672.3" r="6.8"/>
			<circle class="st25" cx="389.3" cy="672.9" r="6.8"/>
			<circle class="st25" cx="391" cy="673.3" r="6.8"/>
			<circle class="st26" cx="392.7" cy="673.6" r="6.8"/>
			<circle class="st26" cx="394.4" cy="673.8" r="6.8"/>
			<circle class="st26" cx="396.2" cy="673.9" r="6.8"/>
			<circle class="st26" cx="397.9" cy="673.9" r="6.8"/>
			<circle class="st26" cx="399.7" cy="673.9" r="6.8"/>
			<circle class="st27" cx="401.5" cy="673.8" r="6.8"/>
			<circle class="st27" cx="403.2" cy="673.7" r="6.8"/>
			<circle class="st28" cx="405" cy="673.5" r="6.8"/>
			<circle class="st28" cx="406.8" cy="673.4" r="6.8"/>
			<circle class="st28" cx="408.6" cy="673.2" r="6.8"/>
			<circle class="st29" cx="410.3" cy="673" r="6.8"/>
			<circle class="st29" cx="412.1" cy="672.7" r="6.8"/>
			<circle class="st29" cx="413.8" cy="672.5" r="6.8"/>
			<circle class="st29" cx="415.6" cy="672.2" r="6.8"/>
			<circle class="st29" cx="417.3" cy="671.8" r="6.8"/>
			<circle class="st30" cx="419.1" cy="671.5" r="6.8"/>
			<circle class="st30" cx="420.8" cy="671.1" r="6.8"/>
			<circle class="st30" cx="422.6" cy="670.7" r="6.8"/>
			<circle class="st30" cx="424.3" cy="670.4" r="6.8"/>
			<circle class="st30" cx="426.1" cy="669.9" r="6.8"/>
			<circle class="st31" cx="427.8" cy="669.5" r="6.8"/>
			<circle class="st31" cx="429.6" cy="669.1" r="6.8"/>
			<circle class="st31" cx="431.4" cy="668.6" r="6.8"/>
			<circle class="st32" cx="433.1" cy="668.2" r="6.8"/>
			<circle class="st32" cx="434.9" cy="667.7" r="6.8"/>
			<circle class="st33" cx="436.6" cy="667.2" r="6.8"/>
			<circle class="st33" cx="438.4" cy="666.7" r="6.8"/>
			<circle class="st33" cx="440.1" cy="666.3" r="6.8"/>
			<circle class="st33" cx="441.9" cy="665.7" r="6.8"/>
			<circle class="st33" cx="443.6" cy="665.3" r="6.8"/>
			<circle class="st34" cx="445.3" cy="664.8" r="6.8"/>
			<circle class="st34" cx="447.1" cy="664.3" r="6.8"/>
			<circle class="st34" cx="448.8" cy="663.8" r="6.8"/>
			<circle class="st34" cx="450.6" cy="663.3" r="6.8"/>
			
				<ellipse transform="matrix(0.9957 -9.264208e-02 9.264208e-02 0.9957 -59.4619 44.751)" class="st34" cx="452.3" cy="662.8" rx="6.9" ry="6.9"/>
			
				<ellipse transform="matrix(0.9957 -9.264205e-02 9.264205e-02 0.9957 -59.4103 44.9106)" class="st35" cx="454" cy="662.4" rx="6.9" ry="6.9"/>
			
				<ellipse transform="matrix(0.9957 -9.264223e-02 9.264223e-02 0.9957 -59.3588 45.0704)" class="st35" cx="455.8" cy="661.9" rx="6.9" ry="6.9"/>
			
				<ellipse transform="matrix(0.9957 -9.264216e-02 9.264216e-02 0.9957 -59.3113 45.2306)" class="st35" cx="457.5" cy="661.5" rx="6.9" ry="6.9"/>
			
				<ellipse transform="matrix(0.9957 -9.264214e-02 9.264214e-02 0.9957 -59.2638 45.3908)" class="st35" cx="459.3" cy="661" rx="6.9" ry="6.9"/>
			
				<ellipse transform="matrix(0.9957 -9.264220e-02 9.264220e-02 0.9957 -59.2164 45.5511)" class="st36" cx="461" cy="660.6" rx="6.9" ry="6.9"/>
			
				<ellipse transform="matrix(0.9957 -9.264214e-02 9.264214e-02 0.9957 -59.1695 45.7072)" class="st37" cx="462.7" cy="660.2" rx="6.9" ry="6.9"/>
			
				<ellipse transform="matrix(0.9957 -9.264205e-02 9.264205e-02 0.9957 -59.126 45.8679)" class="st37" cx="464.5" cy="659.8" rx="6.9" ry="6.9"/>
			
				<ellipse transform="matrix(0.9957 -9.264205e-02 9.264205e-02 0.9957 -59.0826 46.0287)" class="st37" cx="466.2" cy="659.4" rx="6.9" ry="6.9"/>
			
				<ellipse transform="matrix(0.9957 -9.264219e-02 9.264219e-02 0.9957 -59.044 46.1861)" class="st37" cx="467.9" cy="659.1" rx="6.9" ry="6.9"/>
			
				<ellipse transform="matrix(0.9957 -9.264217e-02 9.264217e-02 0.9957 -59.0047 46.3474)" class="st37" cx="469.7" cy="658.7" rx="6.9" ry="6.9"/>
			
				<ellipse transform="matrix(0.9957 -9.264211e-02 9.264211e-02 0.9957 -58.97 46.5053)" class="st38" cx="471.4" cy="658.4" rx="6.9" ry="6.9"/>
			
				<ellipse transform="matrix(0.9957 -9.264208e-02 9.264208e-02 0.9957 -58.9348 46.6672)" class="st38" cx="473.2" cy="658.1" rx="6.9" ry="6.9"/>
			
				<ellipse transform="matrix(0.9957 -9.264204e-02 9.264204e-02 0.9957 -58.9002 46.825)" class="st38" cx="474.9" cy="657.8" rx="6.9" ry="6.9"/>
			
				<ellipse transform="matrix(0.9957 -9.264200e-02 9.264200e-02 0.9957 -58.8731 46.9881)" class="st38" cx="476.7" cy="657.6" rx="6.9" ry="6.9"/>
			
				<ellipse transform="matrix(0.9957 -9.264216e-02 9.264216e-02 0.9957 -58.8427 47.1466)" class="st38" cx="478.4" cy="657.4" rx="6.9" ry="6.9"/>
			
				<ellipse transform="matrix(0.9957 -9.264199e-02 9.264199e-02 0.9957 -58.8202 47.3061)" class="st39" cx="480.1" cy="657.2" rx="6.9" ry="6.9"/>
			
				<ellipse transform="matrix(0.9957 -9.264215e-02 9.264215e-02 0.9957 -58.7974 47.4699)" class="st39" cx="481.9" cy="657" rx="6.9" ry="6.9"/>
			
				<ellipse transform="matrix(0.9957 -9.264219e-02 9.264219e-02 0.9957 -58.7792 47.63)" class="st39" cx="483.6" cy="656.9" rx="6.9" ry="6.9"/>
			
				<ellipse transform="matrix(0.9957 -9.264202e-02 9.264202e-02 0.9957 -58.7649 47.7907)" class="st39" cx="485.4" cy="656.9" rx="6.9" ry="6.9"/>
			
				<ellipse transform="matrix(0.9957 -9.264216e-02 9.264216e-02 0.9957 -58.7508 47.9515)" class="st39" cx="487.1" cy="656.8" rx="6.9" ry="6.9"/>
			
				<ellipse transform="matrix(0.9957 -9.264210e-02 9.264210e-02 0.9957 -58.7407 48.1127)" class="st40" cx="488.9" cy="656.8" rx="6.9" ry="6.9"/>
			
				<ellipse transform="matrix(0.9957 -9.264211e-02 9.264211e-02 0.9957 -58.7347 48.2746)" class="st40" cx="490.6" cy="656.8" rx="6.9" ry="6.9"/>
			
				<ellipse transform="matrix(0.9957 -9.264207e-02 9.264207e-02 0.9957 -58.7328 48.437)" class="st40" cx="492.4" cy="656.8" rx="6.9" ry="6.9"/>
			
				<ellipse transform="matrix(0.9957 -9.264211e-02 9.264211e-02 0.9957 -58.7356 48.596)" class="st40" cx="494.1" cy="656.9" rx="6.9" ry="6.9"/>
			
				<ellipse transform="matrix(0.9957 -9.264202e-02 9.264202e-02 0.9957 -58.7418 48.7595)" class="st40" cx="495.8" cy="657.1" rx="6.9" ry="6.9"/>
			
				<ellipse transform="matrix(0.9957 -9.264202e-02 9.264202e-02 0.9957 -58.7481 48.9231)" class="st41" cx="497.6" cy="657.2" rx="6.9" ry="6.9"/>
			
				<ellipse transform="matrix(0.9957 -9.264196e-02 9.264196e-02 0.9957 -58.7631 49.0837)" class="st41" cx="499.3" cy="657.5" rx="6.9" ry="6.9"/>
			
				<ellipse transform="matrix(0.9957 -9.264212e-02 9.264212e-02 0.9957 -58.7818 49.2491)" class="st41" cx="501.1" cy="657.8" rx="6.9" ry="6.9"/>
			
				<ellipse transform="matrix(0.9957 -9.264211e-02 9.264211e-02 0.9957 -58.805 49.4109)" class="st41" cx="502.8" cy="658.1" rx="6.9" ry="6.9"/>
			
				<ellipse transform="matrix(0.9957 -9.264200e-02 9.264200e-02 0.9957 -58.8323 49.5732)" class="st41" cx="504.5" cy="658.5" rx="6.9" ry="6.9"/>
			
				<ellipse transform="matrix(0.9957 -9.264209e-02 9.264209e-02 0.9957 -58.8637 49.7362)" class="st42" cx="506.3" cy="658.9" rx="6.9" ry="6.9"/>
			
				<ellipse transform="matrix(0.9957 -9.264211e-02 9.264211e-02 0.9957 -58.908 49.8968)" class="st42" cx="508" cy="659.4" rx="6.9" ry="6.9"/>
			
				<ellipse transform="matrix(0.9957 -9.264217e-02 9.264217e-02 0.9957 -58.957 50.0538)" class="st42" cx="509.7" cy="660.1" rx="6.9" ry="6.9"/>
			
				<ellipse transform="matrix(0.9957 -9.264212e-02 9.264212e-02 0.9957 -59.0146 50.2079)" class="st42" cx="511.3" cy="660.8" rx="6.9" ry="6.9"/>
			
				<ellipse transform="matrix(0.9957 -9.264221e-02 9.264221e-02 0.9957 -59.0858 50.3556)" class="st42" cx="512.8" cy="661.6" rx="6.9" ry="6.9"/>
			
				<ellipse transform="matrix(0.9957 -9.264204e-02 9.264204e-02 0.9957 -59.1656 50.5002)" class="st43" cx="514.4" cy="662.5" rx="6.9" ry="6.9"/>
			<circle class="st44" cx="515.8" cy="663.6" r="6.9"/>
			<circle class="st44" cx="517.1" cy="664.8" r="6.9"/>
			<circle class="st44" cx="518.3" cy="666" r="6.9"/>
			
				<ellipse transform="matrix(6.804750e-02 -0.9977 0.9977 6.804750e-02 -181.7693 1140.0045)" class="st45" cx="519.3" cy="667.3" rx="6.9" ry="6.9"/>
			
				<ellipse transform="matrix(6.804737e-02 -0.9977 0.9977 6.804737e-02 -182.2845 1142.2321)" class="st45" cx="520.3" cy="668.7" rx="6.9" ry="6.9"/>
			<circle class="st45" cx="521.1" cy="670.1" r="6.9"/>
			
				<ellipse transform="matrix(6.804749e-02 -0.9977 0.9977 6.804749e-02 -183.7091 1146.5808)" class="st45" cx="521.9" cy="671.6" rx="6.9" ry="6.9"/>
			<circle class="st45" cx="522.5" cy="673.2" r="6.9"/>
			
				<ellipse transform="matrix(6.804744e-02 -0.9977 0.9977 6.804744e-02 -185.7902 1150.7529)" class="st46" cx="523.1" cy="674.8" rx="6.9" ry="6.9"/>
			<circle class="st46" cx="523.5" cy="676.5" r="6.9"/>
			<circle class="st46" cx="523.9" cy="678.2" r="6.9"/>
			<circle class="st46" cx="524.2" cy="679.9" r="6.9"/>
			<circle class="st46" cx="524.4" cy="681.7" r="6.9"/>
			<circle class="st47" cx="524.5" cy="683.5" r="6.9"/>
			<circle class="st47" cx="524.6" cy="685.3" r="6.9"/>
			<circle class="st47" cx="524.6" cy="687.2" r="6.9"/>
			<circle class="st48" cx="524.6" cy="689" r="6.9"/>
			
				<ellipse transform="matrix(6.804767e-02 -0.9977 0.9977 6.804767e-02 -200.5549 1167.0873)" class="st48" cx="524.4" cy="690.9" rx="6.9" ry="6.9"/>
			
				<ellipse transform="matrix(6.804749e-02 -0.9977 0.9977 6.804749e-02 -202.5298 1168.6682)" class="st49" cx="524.3" cy="692.7" rx="6.9" ry="6.9"/>
			<circle class="st49" cx="524.1" cy="694.6" r="6.9"/>
			
				<ellipse transform="matrix(6.804751e-02 -0.9977 0.9977 6.804751e-02 -206.6616 1171.6685)" class="st49" cx="523.8" cy="696.5" rx="6.9" ry="6.9"/>
			<circle class="st49" cx="523.5" cy="698.3" r="6.9"/>
			
				<ellipse transform="matrix(6.804752e-02 -0.9977 0.9977 6.804752e-02 -210.8944 1174.416)" class="st49" cx="523.2" cy="700.1" rx="6.9" ry="6.9"/>
			
				<ellipse transform="matrix(6.804752e-02 -0.9977 0.9977 6.804752e-02 -213.1017 1175.709)" class="st50" cx="522.8" cy="701.9" rx="6.9" ry="6.9"/>
			
				<ellipse transform="matrix(6.804752e-02 -0.9977 0.9977 6.804752e-02 -215.1828 1176.9514)" class="st50" cx="522.4" cy="703.7" rx="6.9" ry="6.9"/>
			<circle class="st50" cx="521.9" cy="705.4" r="6.9"/>
			
				<ellipse transform="matrix(6.804762e-02 -0.9977 0.9977 6.804762e-02 -219.6076 1179.3657)" class="st50" cx="521.5" cy="707.2" rx="6.9" ry="6.9"/>
			
				<ellipse transform="matrix(6.804764e-02 -0.9977 0.9977 6.804764e-02 -221.825 1180.4869)" class="st50" cx="521" cy="709" rx="6.9" ry="6.9"/>
			<circle class="st51" cx="520.4" cy="710.8" r="6.9"/>
			
				<ellipse transform="matrix(6.804748e-02 -0.9977 0.9977 6.804748e-02 -226.4719 1182.785)" class="st51" cx="519.9" cy="712.6" rx="6.9" ry="6.9"/>
			<circle class="st51" cx="519.3" cy="714.4" r="6.9"/>
			<circle class="st51" cx="518.6" cy="716.2" r="6.9"/>
			<circle class="st52" cx="518" cy="718.1" r="6.9"/>
			<circle class="st53" cx="517.3" cy="719.9" r="6.9"/>
			<circle class="st53" cx="516.6" cy="721.7" r="6.9"/>
			<circle class="st53" cx="515.8" cy="723.5" r="6.9"/>
			<circle class="st53" cx="515.1" cy="725.4" r="6.9"/>
			<circle class="st53" cx="514.2" cy="727.2" r="6.9"/>
			
				<ellipse transform="matrix(0.9957 -9.264208e-02 9.264208e-02 0.9957 -65.337 50.7013)" class="st54" cx="513.4" cy="729.1" rx="6.9" ry="6.9"/>
			
				<ellipse transform="matrix(0.9957 -9.264224e-02 9.264224e-02 0.9957 -65.5093 50.6337)" class="st54" cx="512.6" cy="730.9" rx="6.9" ry="6.9"/>
			
				<ellipse transform="matrix(0.9957 -9.264211e-02 9.264211e-02 0.9957 -65.6861 50.5625)" class="st54" cx="511.8" cy="732.8" rx="6.9" ry="6.9"/>
			
				<ellipse transform="matrix(0.9957 -9.264213e-02 9.264213e-02 0.9957 -65.8588 50.4907)" class="st54" cx="510.9" cy="734.6" rx="6.9" ry="6.9"/>
			
				<ellipse transform="matrix(0.9957 -9.264207e-02 9.264207e-02 0.9957 -66.0321 50.4148)" class="st54" cx="510" cy="736.4" rx="6.9" ry="6.9"/>
			
				<ellipse transform="matrix(0.9957 -9.264214e-02 9.264214e-02 0.9957 -66.2096 50.3396)" class="st55" cx="509.1" cy="738.3" rx="6.9" ry="6.9"/>
			
				<ellipse transform="matrix(0.9957 -9.264211e-02 9.264211e-02 0.9957 -66.3788 50.2632)" class="st55" cx="508.2" cy="740.1" rx="6.9" ry="6.9"/>
			
				<ellipse transform="matrix(0.9957 -9.264217e-02 9.264217e-02 0.9957 -66.5528 50.1832)" class="st55" cx="507.2" cy="741.9" rx="6.9" ry="6.9"/>
			
				<ellipse transform="matrix(0.9957 -9.264205e-02 9.264205e-02 0.9957 -66.7266 50.1032)" class="st55" cx="506.3" cy="743.8" rx="6.9" ry="6.9"/>
			
				<ellipse transform="matrix(0.9957 -9.264227e-02 9.264227e-02 0.9957 -66.8966 50.0228)" class="st55" cx="505.3" cy="745.6" rx="6.9" ry="6.9"/>
			
				<ellipse transform="matrix(0.9957 -9.264217e-02 9.264217e-02 0.9957 -67.0669 49.9382)" class="st56" cx="504.4" cy="747.3" rx="6.9" ry="6.9"/>
			
				<ellipse transform="matrix(0.9957 -9.264217e-02 9.264217e-02 0.9957 -67.2367 49.8577)" class="st56" cx="503.4" cy="749.1" rx="6.9" ry="6.9"/>
			
				<ellipse transform="matrix(0.9957 -9.264221e-02 9.264221e-02 0.9957 -67.4071 49.7731)" class="st56" cx="502.4" cy="750.9" rx="6.9" ry="6.9"/>
			
				<ellipse transform="matrix(0.9957 -9.264220e-02 9.264220e-02 0.9957 -67.5734 49.6879)" class="st56" cx="501.4" cy="752.7" rx="6.9" ry="6.9"/>
			
				<ellipse transform="matrix(0.9957 -9.264202e-02 9.264202e-02 0.9957 -67.7396 49.6026)" class="st56" cx="500.4" cy="754.4" rx="6.9" ry="6.9"/>
			
				<ellipse transform="matrix(0.9957 -9.264213e-02 9.264213e-02 0.9957 -67.9059 49.5175)" class="st57" cx="499.4" cy="756.2" rx="6.9" ry="6.9"/>
			
				<ellipse transform="matrix(0.9957 -9.264208e-02 9.264208e-02 0.9957 -68.0681 49.4317)" class="st57" cx="498.4" cy="757.9" rx="6.9" ry="6.9"/>
			
				<ellipse transform="matrix(0.9957 -9.264218e-02 9.264218e-02 0.9957 -68.2304 49.346)" class="st57" cx="497.4" cy="759.6" rx="6.9" ry="6.9"/>
			
				<ellipse transform="matrix(0.9957 -9.264205e-02 9.264205e-02 0.9957 -68.3931 49.2561)" class="st57" cx="496.3" cy="761.3" rx="6.9" ry="6.9"/>
			
				<ellipse transform="matrix(0.9957 -9.264208e-02 9.264208e-02 0.9957 -68.5512 49.1698)" class="st57" cx="495.3" cy="763" rx="6.9" ry="6.9"/>
			
				<ellipse transform="matrix(0.9957 -9.264208e-02 9.264208e-02 0.9957 -68.7093 49.0835)" class="st58" cx="494.3" cy="764.6" rx="6.9" ry="6.9"/>
			
				<ellipse transform="matrix(0.9957 -9.264214e-02 9.264214e-02 0.9957 -68.8634 48.9966)" class="st58" cx="493.3" cy="766.2" rx="6.9" ry="6.9"/>
			
				<ellipse transform="matrix(0.9957 -9.264208e-02 9.264208e-02 0.9957 -69.0173 48.9097)" class="st58" cx="492.3" cy="767.8" rx="6.9" ry="6.9"/>
			
				<ellipse transform="matrix(0.9957 -9.264222e-02 9.264222e-02 0.9957 -69.1709 48.8269)" class="st58" cx="491.3" cy="769.5" rx="6.9" ry="6.9"/>
			
				<ellipse transform="matrix(0.9957 -9.264210e-02 9.264210e-02 0.9957 -69.3207 48.7394)" class="st58" cx="490.3" cy="771" rx="6.9" ry="6.9"/>
			
				<ellipse transform="matrix(0.9957 -9.264204e-02 9.264204e-02 0.9957 -69.4659 48.6554)" class="st59" cx="489.3" cy="772.5" rx="6.9" ry="6.9"/>
			
				<ellipse transform="matrix(0.9957 -9.264202e-02 9.264202e-02 0.9957 -69.6112 48.5715)" class="st60" cx="488.4" cy="774.1" rx="6.9" ry="6.9"/>
			
				<ellipse transform="matrix(0.9957 -9.264203e-02 9.264203e-02 0.9957 -69.7524 48.4869)" class="st60" cx="487.4" cy="775.5" rx="6.9" ry="6.9"/>
			
				<ellipse transform="matrix(0.9957 -9.264220e-02 9.264220e-02 0.9957 -69.8937 48.4025)" class="st60" cx="486.4" cy="777" rx="6.9" ry="6.9"/>
			
				<ellipse transform="matrix(0.9957 -9.264206e-02 9.264206e-02 0.9957 -70.0301 48.3214)" class="st60" cx="485.5" cy="778.5" rx="6.9" ry="6.9"/>
			
				<ellipse transform="matrix(0.9957 -9.264214e-02 9.264214e-02 0.9957 -70.1666 48.2405)" class="st61" cx="484.5" cy="779.9" rx="6.9" ry="6.9"/>
			
				<ellipse transform="matrix(0.9957 -9.264205e-02 9.264205e-02 0.9957 -70.299 48.1588)" class="st61" cx="483.6" cy="781.3" rx="6.9" ry="6.9"/>
			
				<ellipse transform="matrix(0.9957 -9.264215e-02 9.264215e-02 0.9957 -70.4268 48.0808)" class="st61" cx="482.7" cy="782.6" rx="6.9" ry="6.9"/>
			
				<ellipse transform="matrix(0.9957 -9.264201e-02 9.264201e-02 0.9957 -70.5504 48.0021)" class="st61" cx="481.8" cy="783.9" rx="6.9" ry="6.9"/>
			
				<ellipse transform="matrix(0.9957 -9.264213e-02 9.264213e-02 0.9957 -70.6735 47.9276)" class="st61" cx="480.9" cy="785.2" rx="6.9" ry="6.9"/>
			
				<ellipse transform="matrix(0.9957 -9.264212e-02 9.264212e-02 0.9957 -70.7925 47.8525)" class="st62" cx="480" cy="786.4" rx="6.9" ry="6.9"/>
			
				<ellipse transform="matrix(0.9957 -9.264203e-02 9.264203e-02 0.9957 -70.9109 47.7814)" class="st62" cx="479.2" cy="787.7" rx="6.9" ry="6.9"/>
			<circle class="st62" cx="478.4" cy="788.9" r="7"/>
			<circle class="st62" cx="477.6" cy="790" r="7"/>
			<circle class="st62" cx="476.8" cy="791.1" r="7"/>
			<circle class="st63" cx="476" cy="792.2" r="7"/>
			<circle class="st63" cx="475.3" cy="793.2" r="7"/>
			<circle class="st64" cx="474.6" cy="794.2" r="7"/>
			<circle class="st64" cx="473.9" cy="795.1" r="7"/>
			<circle class="st64" cx="473.3" cy="796.1" r="7"/>
			<circle class="st65" cx="472.7" cy="796.9" r="7"/>
			<circle class="st65" cx="472.1" cy="797.7" r="7"/>
			<circle class="st65" cx="471.5" cy="798.5" r="7"/>
			<circle class="st65" cx="470.8" cy="799.6" r="7"/>
			<circle class="st65" cx="469.9" cy="800.7" r="7"/>
			<circle class="st66" cx="469" cy="801.9" r="7"/>
			<circle class="st66" cx="468" cy="803.1" r="7"/>
			<circle class="st66" cx="466.9" cy="804.5" r="7"/>
			<circle class="st66" cx="465.7" cy="805.9" r="7"/>
			<circle class="st66" cx="464.5" cy="807.3" r="7"/>
			<circle class="st67" cx="463.2" cy="808.8" r="7"/>
			<circle class="st67" cx="461.8" cy="810.3" r="7"/>
			<circle class="st67" cx="460.5" cy="811.9" r="7"/>
			<circle class="st68" cx="459" cy="813.4" r="7"/>
			<circle class="st68" cx="457.6" cy="814.9" r="7"/>
			<circle class="st69" cx="456.1" cy="816.4" r="7"/>
			<circle class="st69" cx="454.6" cy="817.8" r="7"/>
			<circle class="st69" cx="453.1" cy="819.2" r="7"/>
			<circle class="st69" cx="451.6" cy="820.5" r="7"/>
			<circle class="st69" cx="450.1" cy="821.7" r="7"/>
			<circle class="st70" cx="448.6" cy="822.9" r="7"/>
			<circle class="st70" cx="447.1" cy="824" r="7"/>
			<circle class="st70" cx="445.6" cy="824.9" r="7"/>
			<circle class="st70" cx="444.2" cy="825.7" r="7"/>
			<circle class="st70" cx="442.8" cy="826.5" r="7"/>
			<circle class="st71" cx="441.5" cy="827" r="7"/>
			<circle class="st71" cx="440.2" cy="827.4" r="7"/>
			<circle class="st71" cx="438.4" cy="827.5" r="7"/>
			<circle class="st71" cx="436.7" cy="827.2" r="7"/>
			<circle class="st71" cx="435.2" cy="826.3" r="7"/>
			<circle class="st72" cx="434.6" cy="825.6" r="7"/>
			<circle class="st72" cx="434" cy="824.8" r="7"/>
			<circle class="st72" cx="433.5" cy="823.8" r="7"/>
			<circle class="st72" cx="433.1" cy="822.6" r="7"/>
			<circle class="st73" cx="432.7" cy="821.3" r="7"/>
			<circle class="st73" cx="432.4" cy="819.9" r="7"/>
			<circle class="st73" cx="432.1" cy="818.3" r="7"/>
			<circle class="st73" cx="431.9" cy="816.6" r="7"/>
			<circle class="st73" cx="431.7" cy="814.8" r="7"/>
			<circle class="st74" cx="431.7" cy="812.9" r="7"/>
			<circle class="st74" cx="431.6" cy="810.9" r="7"/>
			<circle class="st74" cx="431.6" cy="808.9" r="7"/>
			<circle class="st74" cx="431.6" cy="806.8" r="7"/>
			<circle class="st74" cx="431.6" cy="804.7" r="7"/>
			<circle class="st75" cx="431.7" cy="802.5" r="7"/>
			<circle class="st75" cx="431.8" cy="800.3" r="7"/>
			<circle class="st76" cx="432" cy="798.1" r="7"/>
			<circle class="st76" cx="432.1" cy="795.9" r="7"/>
			<circle class="st76" cx="432.3" cy="793.6" r="7"/>
			<circle class="st77" cx="432.5" cy="791.5" r="7"/>
			<circle class="st77" cx="432.7" cy="789.3" r="7"/>
			<circle class="st77" cx="433" cy="787.1" r="7"/>
			<circle class="st77" cx="433.2" cy="785.1" r="7"/>
			<circle class="st77" cx="433.5" cy="783.1" r="7"/>
			<circle class="st78" cx="433.7" cy="781.1" r="7"/>
			<circle class="st78" cx="434" cy="779.2" r="7"/>
			<circle class="st78" cx="434.3" cy="777.4" r="7"/>
			<circle class="st78" cx="434.5" cy="775.8" r="7"/>
			<circle class="st78" cx="434.8" cy="774.2" r="7"/>
			<circle class="st79" cx="435" cy="772.8" r="7"/>
			<circle class="st79" cx="435.2" cy="771.5" r="7"/>
			<circle class="st79" cx="435.5" cy="770" r="7"/>
			<circle class="st80" cx="436" cy="767.3" r="7"/>
			<circle class="st80" cx="436.4" cy="765" r="7"/>
			<circle class="st81" cx="436.7" cy="763" r="7"/>
			<circle class="st81" cx="437" cy="761.4" r="7"/>
			<circle class="st81" cx="437.2" cy="759.9" r="7"/>
			
				<ellipse transform="matrix(0.9957 -9.264211e-02 9.264211e-02 0.9957 -68.3916 43.7864)" class="st81" cx="437.4" cy="758.5" rx="7.1" ry="7.1"/>
			
				<ellipse transform="matrix(0.9957 -9.264202e-02 9.264202e-02 0.9957 -68.2776 43.7955)" class="st81" cx="437.6" cy="757.3" rx="7.1" ry="7.1"/>
			
				<ellipse transform="matrix(0.9957 -9.264207e-02 9.264207e-02 0.9957 -68.1684 43.801)" class="st82" cx="437.7" cy="756.1" rx="7.1" ry="7.1"/>
			
				<ellipse transform="matrix(0.9957 -9.264217e-02 9.264217e-02 0.9957 -68.0586 43.8108)" class="st82" cx="437.9" cy="755" rx="7.1" ry="7.1"/>
			
				<ellipse transform="matrix(0.9957 -9.264202e-02 9.264202e-02 0.9957 -67.9452 43.8157)" class="st82" cx="438" cy="753.7" rx="7.1" ry="7.1"/>
			
				<ellipse transform="matrix(0.9957 -9.264220e-02 9.264220e-02 0.9957 -67.8238 43.8196)" class="st82" cx="438.1" cy="752.4" rx="7.1" ry="7.1"/>
			
				<ellipse transform="matrix(0.9957 -9.264214e-02 9.264214e-02 0.9957 -67.6812 43.8246)" class="st82" cx="438.2" cy="750.9" rx="7.1" ry="7.1"/>
			
				<ellipse transform="matrix(0.9957 -9.264208e-02 9.264208e-02 0.9957 -67.5211 43.8355)" class="st83" cx="438.4" cy="749.2" rx="7.1" ry="7.1"/>
			
				<ellipse transform="matrix(0.9957 -9.264205e-02 9.264205e-02 0.9957 -67.3364 43.8431)" class="st83" cx="438.6" cy="747.2" rx="7.1" ry="7.1"/>
			
				<ellipse transform="matrix(0.9957 -9.264212e-02 9.264212e-02 0.9957 -67.118 43.8542)" class="st83" cx="438.8" cy="744.9" rx="7.1" ry="7.1"/>
			
				<ellipse transform="matrix(0.9957 -9.264215e-02 9.264215e-02 0.9957 -66.8697 43.8695)" class="st83" cx="439.1" cy="742.2" rx="7.1" ry="7.1"/>
			
				<ellipse transform="matrix(0.9957 -9.264213e-02 9.264213e-02 0.9957 -66.6804 43.8805)" class="st84" cx="439.3" cy="740.2" rx="7.1" ry="7.1"/>
			
				<ellipse transform="matrix(0.9957 -9.264220e-02 9.264220e-02 0.9957 -66.5122 43.8904)" class="st85" cx="439.5" cy="738.3" rx="7.1" ry="7.1"/>
			
				<ellipse transform="matrix(0.9957 -9.264215e-02 9.264215e-02 0.9957 -66.341 43.8914)" class="st85" cx="439.6" cy="736.5" rx="7.1" ry="7.1"/>
			
				<ellipse transform="matrix(0.9957 -9.264208e-02 9.264208e-02 0.9957 -66.1738 43.893)" class="st85" cx="439.7" cy="734.7" rx="7.1" ry="7.1"/>
			
				<ellipse transform="matrix(0.9957 -9.264205e-02 9.264205e-02 0.9957 -66.0043 43.8817)" class="st85" cx="439.6" cy="732.9" rx="7.1" ry="7.1"/>
			
				<ellipse transform="matrix(0.9957 -9.264219e-02 9.264219e-02 0.9957 -65.8402 43.863)" class="st85" cx="439.5" cy="731.1" rx="7.1" ry="7.1"/>
			
				<ellipse transform="matrix(0.9957 -9.264208e-02 9.264208e-02 0.9957 -65.6817 43.8324)" class="st86" cx="439.3" cy="729.4" rx="7.1" ry="7.1"/>
			
				<ellipse transform="matrix(0.9957 -9.264209e-02 9.264209e-02 0.9957 -65.5255 43.7855)" class="st86" cx="438.9" cy="727.7" rx="7.1" ry="7.1"/>
			
				<ellipse transform="matrix(0.9957 -9.264208e-02 9.264208e-02 0.9957 -65.3793 43.7275)" class="st86" cx="438.3" cy="726.1" rx="7.1" ry="7.1"/>
			
				<ellipse transform="matrix(0.9957 -9.264213e-02 9.264213e-02 0.9957 -65.24 43.6496)" class="st86" cx="437.5" cy="724.5" rx="7.1" ry="7.1"/>
			
				<ellipse transform="matrix(0.9957 -9.264213e-02 9.264213e-02 0.9957 -65.1083 43.5477)" class="st86" cx="436.5" cy="723.1" rx="7.1" ry="7.1"/>
			
				<ellipse transform="matrix(0.9957 -9.264206e-02 9.264206e-02 0.9957 -64.9911 43.4311)" class="st87" cx="435.3" cy="721.7" rx="7.1" ry="7.1"/>
			
				<ellipse transform="matrix(0.9957 -9.264209e-02 9.264209e-02 0.9957 -64.8967 43.3011)" class="st87" cx="433.9" cy="720.7" rx="7.1" ry="7.1"/>
			
				<ellipse transform="matrix(0.9957 -9.264205e-02 9.264205e-02 0.9957 -64.8156 43.1646)" class="st87" cx="432.5" cy="719.7" rx="7.1" ry="7.1"/>
			
				<ellipse transform="matrix(0.9957 -9.264209e-02 9.264209e-02 0.9957 -64.7533 43.014)" class="st87" cx="430.9" cy="719" rx="7.1" ry="7.1"/>
			
				<ellipse transform="matrix(0.9957 -9.264208e-02 9.264208e-02 0.9957 -64.7044 42.8569)" class="st87" cx="429.3" cy="718.4" rx="7.1" ry="7.1"/>
			
				<ellipse transform="matrix(0.9957 -9.264216e-02 9.264216e-02 0.9957 -64.6683 42.6976)" class="st88" cx="427.6" cy="717.9" rx="7.1" ry="7.1"/>
			
				<ellipse transform="matrix(0.9957 -9.264209e-02 9.264209e-02 0.9957 -64.6456 42.5316)" class="st88" cx="425.8" cy="717.6" rx="7.1" ry="7.1"/>
			
				<ellipse transform="matrix(0.9957 -9.264214e-02 9.264214e-02 0.9957 -64.6318 42.3628)" class="st88" cx="424" cy="717.3" rx="7.1" ry="7.1"/>
			
				<ellipse transform="matrix(0.9957 -9.264208e-02 9.264208e-02 0.9957 -64.626 42.1951)" class="st88" cx="422.2" cy="717.2" rx="7.1" ry="7.1"/>
			
				<ellipse transform="matrix(0.9957 -9.264202e-02 9.264202e-02 0.9957 -64.629 42.0245)" class="st88" cx="420.3" cy="717.1" rx="7.1" ry="7.1"/>
			
				<ellipse transform="matrix(0.9957 -9.264209e-02 9.264209e-02 0.9957 -64.6397 41.8591)" class="st89" cx="418.5" cy="717.2" rx="7.1" ry="7.1"/>
			
				<ellipse transform="matrix(0.9957 -9.264208e-02 9.264208e-02 0.9957 -64.6504 41.6937)" class="st89" cx="416.8" cy="717.2" rx="7.1" ry="7.1"/>
			
				<ellipse transform="matrix(0.9957 -9.264211e-02 9.264211e-02 0.9957 -64.6651 41.5289)" class="st89" cx="415" cy="717.3" rx="7.1" ry="7.1"/>
			
				<ellipse transform="matrix(0.9957 -9.264205e-02 9.264205e-02 0.9957 -64.6839 41.3647)" class="st89" cx="413.2" cy="717.4" rx="7.1" ry="7.1"/>
			
				<ellipse transform="matrix(0.9957 -9.264205e-02 9.264205e-02 0.9957 -64.7022 41.2045)" class="st89" cx="411.5" cy="717.5" rx="7.1" ry="7.1"/>
			<circle class="st90" cx="409.7" cy="717.6" r="7.1"/>
			<circle class="st90" cx="407.9" cy="717.8" r="7.1"/>
			<circle class="st90" cx="406.1" cy="718" r="7.1"/>
			<circle class="st90" cx="404.4" cy="718.2" r="7.1"/>
			<circle class="st90" cx="402.6" cy="718.4" r="7.1"/>
			<circle class="st91" cx="400.8" cy="718.6" r="7.1"/>
			<circle class="st92" cx="399.1" cy="718.9" r="7.1"/>
			<circle class="st92" cx="397.3" cy="719.1" r="7.1"/>
			<circle class="st92" cx="395.5" cy="719.4" r="7.1"/>
			<circle class="st92" cx="393.8" cy="719.7" r="7.1"/>
			<circle class="st93" cx="392" cy="719.9" r="7.1"/>
			<circle class="st93" cx="390.2" cy="720.2" r="7.1"/>
			<circle class="st93" cx="388.5" cy="720.5" r="7.1"/>
			<circle class="st93" cx="386.7" cy="720.9" r="7.1"/>
			<circle class="st93" cx="385" cy="721.2" r="7.1"/>
			<circle class="st94" cx="383.2" cy="721.5" r="7.1"/>
			<circle class="st94" cx="381.4" cy="721.8" r="7.1"/>
			<circle class="st94" cx="379.7" cy="722.1" r="7.1"/>
			<circle class="st94" cx="377.9" cy="722.5" r="7.1"/>
			<circle class="st94" cx="376.2" cy="722.8" r="7.1"/>
			<circle class="st95" cx="374.4" cy="723.1" r="7.1"/>
			<circle class="st95" cx="372.6" cy="723.4" r="7.1"/>
			<circle class="st96" cx="370.9" cy="723.7" r="7.1"/>
			<circle class="st96" cx="369.1" cy="724" r="7.1"/>
			<circle class="st96" cx="367.4" cy="724.3" r="7.1"/>
			<circle class="st97" cx="365.6" cy="724.6" r="7.1"/>
			<circle class="st97" cx="363.8" cy="724.9" r="7.1"/>
			<circle class="st97" cx="362.1" cy="725.2" r="7.1"/>
			<circle class="st97" cx="360.3" cy="725.4" r="7.1"/>
			<circle class="st97" cx="358.5" cy="725.7" r="7.1"/>
			<circle class="st98" cx="356.8" cy="726" r="7.1"/>
			<circle class="st98" cx="355" cy="726.2" r="7.1"/>
			<circle class="st98" cx="353.2" cy="726.4" r="7.1"/>
			<circle class="st98" cx="351.5" cy="726.6" r="7.1"/>
			<circle class="st98" cx="349.7" cy="726.7" r="7.1"/>
			<circle class="st99" cx="348" cy="726.9" r="7.1"/>
			<circle class="st99" cx="346.2" cy="727.1" r="7.1"/>
			<circle class="st99" cx="344.4" cy="727.1" r="7.1"/>
			
				<ellipse transform="matrix(0.9957 -9.264206e-02 9.264206e-02 0.9957 -65.902 34.8726)" class="st100" cx="342.7" cy="727.3" rx="7.2" ry="7.2"/>
			
				<ellipse transform="matrix(0.9957 -9.264208e-02 9.264208e-02 0.9957 -65.9167 34.7078)" class="st101" cx="340.9" cy="727.3" rx="7.2" ry="7.2"/>
			
				<ellipse transform="matrix(0.9957 -9.264205e-02 9.264205e-02 0.9957 -65.9274 34.5424)" class="st101" cx="339.1" cy="727.4" rx="7.2" ry="7.2"/>
			
				<ellipse transform="matrix(0.9957 -9.264197e-02 9.264197e-02 0.9957 -65.9374 34.3811)" class="st101" cx="337.4" cy="727.4" rx="7.2" ry="7.2"/>
			
				<ellipse transform="matrix(0.9957 -9.264210e-02 9.264210e-02 0.9957 -65.944 34.2151)" class="st101" cx="335.6" cy="727.4" rx="7.2" ry="7.2"/>
			
				<ellipse transform="matrix(0.9957 -9.264220e-02 9.264220e-02 0.9957 -65.9501 34.0533)" class="st101" cx="333.8" cy="727.4" rx="7.2" ry="7.2"/>
			
				<ellipse transform="matrix(0.9957 -9.264211e-02 9.264211e-02 0.9957 -65.9525 33.8867)" class="st102" cx="332" cy="727.3" rx="7.2" ry="7.2"/>
			
				<ellipse transform="matrix(0.9957 -9.264199e-02 9.264199e-02 0.9957 -65.9508 33.7196)" class="st102" cx="330.2" cy="727.2" rx="7.2" ry="7.2"/>
			
				<ellipse transform="matrix(0.9957 -9.264214e-02 9.264214e-02 0.9957 -65.9446 33.5561)" class="st102" cx="328.5" cy="727.1" rx="7.2" ry="7.2"/>
			
				<ellipse transform="matrix(0.9957 -9.264208e-02 9.264208e-02 0.9957 -65.9301 33.3913)" class="st102" cx="326.7" cy="726.8" rx="7.2" ry="7.2"/>
			
				<ellipse transform="matrix(0.9957 -9.264210e-02 9.264210e-02 0.9957 -65.9074 33.2254)" class="st102" cx="324.9" cy="726.5" rx="7.2" ry="7.2"/>
			
				<ellipse transform="matrix(0.9957 -9.264216e-02 9.264216e-02 0.9957 -65.8761 33.0625)" class="st103" cx="323.2" cy="726.1" rx="7.2" ry="7.2"/>
			
				<ellipse transform="matrix(0.9957 -9.264206e-02 9.264206e-02 0.9957 -65.8312 32.906)" class="st103" cx="321.5" cy="725.5" rx="7.2" ry="7.2"/>
			
				<ellipse transform="matrix(0.9947 -0.1028 0.1028 0.9947 -72.8143 36.7226)" class="st103" cx="319.9" cy="724.8" rx="7.2" ry="7.2"/>
			
				<ellipse transform="matrix(0.9947 -0.1028 0.1028 0.9947 -72.7363 36.5584)" class="st103" cx="318.3" cy="724" rx="7.2" ry="7.2"/>
			
				<ellipse transform="matrix(0.9947 -0.1028 0.1028 0.9947 -72.6432 36.4012)" class="st103" cx="316.9" cy="723" rx="7.2" ry="7.2"/>
			
				<ellipse transform="matrix(0.9947 -0.1028 0.1028 0.9947 -72.5332 36.2647)" class="st104" cx="315.6" cy="721.9" rx="7.2" ry="7.2"/>
			
				<ellipse transform="matrix(0.9947 -0.1028 0.1028 0.9947 -72.4084 36.1354)" class="st104" cx="314.4" cy="720.6" rx="7.2" ry="7.2"/>
			
				<ellipse transform="matrix(0.9947 -0.1028 0.1028 0.9947 -72.2725 36.0183)" class="st104" cx="313.3" cy="719.2" rx="7.2" ry="7.2"/>
			
				<ellipse transform="matrix(0.9965 -8.358768e-02 8.358768e-02 0.9965 -58.9039 28.6271)" class="st104" cx="312.4" cy="717.8" rx="7.2" ry="7.2"/>
			
				<ellipse transform="matrix(0.9957 -9.264211e-02 9.264211e-02 0.9957 -65.0105 31.9442)" class="st104" cx="311.6" cy="716.2" rx="7.2" ry="7.2"/>
			
				<ellipse transform="matrix(0.9957 -9.264208e-02 9.264208e-02 0.9957 -64.866 31.8738)" class="st105" cx="310.9" cy="714.6" rx="7.2" ry="7.2"/>
			
				<ellipse transform="matrix(0.9965 -8.358753e-02 8.358753e-02 0.9965 -58.506 28.4264)" class="st105" cx="310.2" cy="712.9" rx="7.2" ry="7.2"/>
			
				<ellipse transform="matrix(0.9947 -0.1028 0.1028 0.9947 -71.4661 35.6046)" class="st105" cx="309.7" cy="711.2" rx="7.2" ry="7.2"/>
			
				<ellipse transform="matrix(0.9957 -9.264211e-02 9.264211e-02 0.9957 -64.3893 31.7028)" class="st105" cx="309.3" cy="709.4" rx="7.2" ry="7.2"/>
			
				<ellipse transform="matrix(0.9947 -0.1028 0.1028 0.9947 -71.1005 35.5052)" class="st105" cx="308.9" cy="707.6" rx="7.2" ry="7.2"/>
			
				<ellipse transform="matrix(0.9965 -8.358750e-02 8.358750e-02 0.9965 -57.9144 28.2673)" class="st106" cx="308.6" cy="705.8" rx="7.2" ry="7.2"/>
			
				<ellipse transform="matrix(0.9965 -8.358767e-02 8.358767e-02 0.9965 -57.7631 28.2469)" class="st106" cx="308.5" cy="704" rx="7.2" ry="7.2"/>
			
				<ellipse transform="matrix(0.9965 -8.358753e-02 8.358753e-02 0.9965 -57.6153 28.2268)" class="st106" cx="308.3" cy="702.2" rx="7.2" ry="7.2"/>
			
				<ellipse transform="matrix(0.9957 -9.264211e-02 9.264211e-02 0.9957 -63.5616 31.566)" class="st106" cx="308.2" cy="700.4" rx="7.2" ry="7.2"/>
			
				<ellipse transform="matrix(0.9965 -8.358774e-02 8.358774e-02 0.9965 -57.3175 28.2054)" class="st106" cx="308.2" cy="698.6" rx="7.2" ry="7.2"/>
			
				<ellipse transform="matrix(0.9957 -9.264220e-02 9.264220e-02 0.9957 -63.2303 31.5488)" class="st107" cx="308.2" cy="696.8" rx="7.2" ry="7.2"/>
			
				<ellipse transform="matrix(0.9947 -0.1028 0.1028 0.9947 -69.8187 35.3653)" class="st108" cx="308.2" cy="695.1" rx="7.2" ry="7.2"/>
			
				<ellipse transform="matrix(0.9957 -9.264208e-02 9.264208e-02 0.9957 -62.9053 31.545)" class="st108" cx="308.3" cy="693.3" rx="7.2" ry="7.2"/>
			
				<ellipse transform="matrix(0.9965 -8.358774e-02 8.358774e-02 0.9965 -56.7271 28.2044)" class="st108" cx="308.5" cy="691.6" rx="7.2" ry="7.2"/>
			
				<ellipse transform="matrix(0.9957 -9.264218e-02 9.264218e-02 0.9957 -62.5776 31.5617)" class="st108" cx="308.7" cy="689.8" rx="7.2" ry="7.2"/>
			
				<ellipse transform="matrix(0.9957 -9.264212e-02 9.264212e-02 0.9957 -62.4134 31.5721)" class="st109" cx="308.9" cy="688" rx="7.2" ry="7.2"/>
			<circle class="st109" cx="309.1" cy="686.3" r="7.2"/>
			<circle class="st109" cx="309.4" cy="684.6" r="7.2"/>
			<circle class="st109" cx="309.8" cy="682.9" r="7.2"/>
			<circle class="st109" cx="310.2" cy="681.1" r="7.2"/>
			<circle class="st110" cx="310.6" cy="679.4" r="7.2"/>
			<circle class="st110" cx="311" cy="677.7" r="7.2"/>
			<circle class="st110" cx="311.5" cy="676" r="7.2"/>
			<circle class="st110" cx="312" cy="674.3" r="7.2"/>
			<circle class="st110" cx="312.6" cy="672.6" r="7.2"/>
			<circle class="st111" cx="313.2" cy="670.9" r="7.2"/>
			<circle class="st111" cx="313.8" cy="669.2" r="7.2"/>
			<circle class="st112" cx="314.4" cy="667.6" r="7.2"/>
			<circle class="st112" cx="315.1" cy="665.9" r="7.2"/>
			<circle class="st112" cx="315.7" cy="664.2" r="7.2"/>
			<circle class="st113" cx="316.5" cy="662.6" r="7.2"/>
			<circle class="st113" cx="317.2" cy="661" r="7.2"/>
			<circle class="st113" cx="318" cy="659.3" r="7.2"/>
			<circle class="st113" cx="318.7" cy="657.7" r="7.2"/>
			<circle class="st113" cx="319.5" cy="656.1" r="7.2"/>
			<circle class="st114" cx="320.3" cy="654.5" r="7.2"/>
			<circle class="st114" cx="321.2" cy="652.9" r="7.2"/>
			<circle class="st114" cx="322" cy="651.3" r="7.2"/>
			<circle class="st114" cx="322.9" cy="649.7" r="7.2"/>
			<circle class="st114" cx="323.8" cy="648.2" r="7.2"/>
			<circle class="st115" cx="324.6" cy="646.6" r="7.2"/>
			<circle class="st115" cx="325.6" cy="645.1" r="7.2"/>
			<circle class="st115" cx="326.5" cy="643.5" r="7.2"/>
			<circle class="st116" cx="327.4" cy="642" r="7.2"/>
			<circle class="st116" cx="328.3" cy="640.5" r="7.2"/>
			<circle class="st117" cx="329.3" cy="639" r="7.2"/>
			<circle class="st117" cx="330.2" cy="637.5" r="7.2"/>
			<circle class="st117" cx="331.2" cy="636" r="7.2"/>
			<circle class="st117" cx="332.2" cy="634.5" r="7.2"/>
			<circle class="st117" cx="333.2" cy="633" r="7.2"/>
			<circle class="st118" cx="334.2" cy="631.5" r="7.2"/>
			<circle class="st118" cx="335.2" cy="630" r="7.2"/>
			<circle class="st118" cx="336.2" cy="628.5" r="7.2"/>
			<circle class="st118" cx="337.3" cy="627" r="7.3"/>
			<circle class="st118" cx="338.3" cy="625.5" r="7.3"/>
			<circle class="st119" cx="339.4" cy="624.1" r="7.3"/>
			<circle class="st119" cx="340.5" cy="622.6" r="7.3"/>
			<circle class="st119" cx="341.6" cy="621.2" r="7.3"/>
			<circle class="st119" cx="342.7" cy="619.7" r="7.3"/>
			<circle class="st120" cx="343.8" cy="618.3" r="7.3"/>
			<circle class="st121" cx="344.9" cy="616.8" r="7.3"/>
			<circle class="st121" cx="346" cy="615.4" r="7.3"/>
			<circle class="st121" cx="347.2" cy="614" r="7.3"/>
			<circle class="st121" cx="348.3" cy="612.5" r="7.3"/>
			<circle class="st121" cx="349.5" cy="611.1" r="7.3"/>
			<circle class="st122" cx="350.7" cy="609.7" r="7.3"/>
			<circle class="st122" cx="351.8" cy="608.3" r="7.3"/>
			<circle class="st122" cx="353" cy="606.9" r="7.3"/>
			<circle class="st122" cx="354.2" cy="605.6" r="7.3"/>
			<circle class="st122" cx="355.4" cy="604.2" r="7.3"/>
			<circle class="st123" cx="356.6" cy="602.8" r="7.3"/>
			<circle class="st123" cx="357.9" cy="601.5" r="7.3"/>
			<circle class="st123" cx="359.1" cy="600.1" r="7.3"/>
			<circle class="st123" cx="360.4" cy="598.8" r="7.3"/>
			<circle class="st123" cx="361.6" cy="597.4" r="7.3"/>
			<circle class="st124" cx="362.9" cy="596.1" r="7.3"/>
			<circle class="st124" cx="364.2" cy="594.8" r="7.3"/>
			<circle class="st124" cx="365.4" cy="593.5" r="7.3"/>
			<circle class="st124" cx="366.7" cy="592.2" r="7.3"/>
			<circle class="st124" cx="368.1" cy="590.9" r="7.3"/>
			<circle class="st125" cx="369.4" cy="589.7" r="7.3"/>
			<circle class="st125" cx="370.7" cy="588.4" r="7.3"/>
			<circle class="st125" cx="372" cy="587.2" r="7.3"/>
			<circle class="st125" cx="373.4" cy="585.9" r="7.3"/>
			<circle class="st125" cx="374.7" cy="584.7" r="7.3"/>
			<circle class="st126" cx="376" cy="583.5" r="7.3"/>
			<circle class="st126" cx="377.4" cy="582.3" r="7.3"/>
			<circle class="st126" cx="378.8" cy="581.1" r="7.3"/>
			<circle class="st126" cx="380.2" cy="579.9" r="7.3"/>
			<circle class="st126" cx="381.6" cy="578.8" r="7.3"/>
			<circle class="st127" cx="383" cy="577.6" r="7.3"/>
			<circle class="st128" cx="384.4" cy="576.5" r="7.3"/>
			<circle class="st128" cx="385.8" cy="575.3" r="7.3"/>
			<circle class="st128" cx="387.2" cy="574.2" r="7.3"/>
			<circle class="st129" cx="388.6" cy="573.1" r="7.3"/>
			<circle class="st129" cx="390.1" cy="572" r="7.3"/>
			<circle class="st129" cx="391.5" cy="571" r="7.3"/>
			<circle class="st129" cx="392.9" cy="569.9" r="7.3"/>
			<circle class="st129" cx="394.4" cy="568.9" r="7.3"/>
			<circle class="st130" cx="395.9" cy="567.8" r="7.3"/>
			<circle class="st130" cx="397.4" cy="566.8" r="7.3"/>
			<circle class="st130" cx="398.8" cy="565.8" r="7.3"/>
			<circle class="st130" cx="400.3" cy="564.8" r="7.3"/>
			<circle class="st130" cx="401.8" cy="563.8" r="7.3"/>
			<circle class="st131" cx="403.3" cy="562.9" r="7.3"/>
			<circle class="st131" cx="404.8" cy="561.9" r="7.3"/>
			<circle class="st131" cx="406.3" cy="561" r="7.3"/>
			<circle class="st132" cx="407.9" cy="560.1" r="7.3"/>
			<circle class="st132" cx="409.4" cy="559.2" r="7.3"/>
			<circle class="st133" cx="410.9" cy="558.3" r="7.3"/>
			<circle class="st133" cx="412.5" cy="557.4" r="7.3"/>
			<circle class="st133" cx="414" cy="556.6" r="7.3"/>
			<circle class="st133" cx="415.6" cy="555.7" r="7.3"/>
			<circle class="st133" cx="417.1" cy="554.9" r="7.3"/>
			<circle class="st134" cx="418.7" cy="554.1" r="7.3"/>
			<circle class="st134" cx="420.2" cy="553.3" r="7.3"/>
			<circle class="st134" cx="421.8" cy="552.6" r="7.3"/>
			<circle class="st134" cx="423.4" cy="551.8" r="7.3"/>
			<circle class="st134" cx="425" cy="551.1" r="7.3"/>
			<circle class="st135" cx="426.6" cy="550.4" r="7.3"/>
			<circle class="st135" cx="428.1" cy="549.7" r="7.3"/>
			<circle class="st135" cx="429.7" cy="549" r="7.3"/>
			<circle class="st135" cx="431.3" cy="548.3" r="7.3"/>
			<circle class="st136" cx="433" cy="547.7" r="7.3"/>
			<circle class="st137" cx="434.6" cy="547.1" r="7.3"/>
			<circle class="st137" cx="436.2" cy="546.4" r="7.3"/>
			<circle class="st137" cx="437.8" cy="545.9" r="7.3"/>
			<circle class="st137" cx="439.5" cy="545.3" r="7.3"/>
			<circle class="st137" cx="441.1" cy="544.8" r="7.4"/>
			<circle class="st138" cx="442.7" cy="544.2" r="7.4"/>
			<circle class="st138" cx="444.4" cy="543.8" r="7.4"/>
			<circle class="st138" cx="446" cy="543.2" r="7.4"/>
			<circle class="st138" cx="447.7" cy="542.8" r="7.4"/>
			<circle class="st138" cx="449.3" cy="542.4" r="7.4"/>
			<circle class="st139" cx="451" cy="541.9" r="7.4"/>
			<circle class="st139" cx="452.7" cy="541.5" r="7.4"/>
			<circle class="st139" cx="454.3" cy="541.1" r="7.4"/>
			<circle class="st139" cx="456" cy="540.8" r="7.4"/>
			<circle class="st139" cx="457.7" cy="540.4" r="7.4"/>
			<circle class="st140" cx="459.4" cy="540.1" r="7.4"/>
			<circle class="st140" cx="461.1" cy="539.8" r="7.4"/>
			<circle class="st140" cx="462.7" cy="539.5" r="7.4"/>
			<circle class="st140" cx="464.4" cy="539.3" r="7.4"/>
			<circle class="st140" cx="466.1" cy="539" r="7.4"/>
			<circle class="st141" cx="467.8" cy="538.8" r="7.4"/>
			<circle class="st141" cx="469.5" cy="538.7" r="7.4"/>
			<circle class="st141" cx="471.2" cy="538.5" r="7.4"/>
		</g>
		<g>
			<circle class="st2" cx="497" cy="536.1" r="6.7"/>
			<circle class="st2" cx="498.8" cy="536.3" r="6.7"/>
			<circle class="st2" cx="500.6" cy="536.4" r="6.7"/>
			<circle class="st3" cx="502.4" cy="536.5" r="6.7"/>
			<circle class="st3" cx="504.1" cy="536.6" r="6.7"/>
			<circle class="st3" cx="505.9" cy="536.8" r="6.7"/>
			<circle class="st3" cx="507.7" cy="536.9" r="6.7"/>
			<circle class="st142" cx="509.5" cy="537" r="6.7"/>
			<circle class="st4" cx="511.2" cy="537.2" r="6.7"/>
			<circle class="st4" cx="513" cy="537.3" r="6.7"/>
			<circle class="st4" cx="514.8" cy="537.4" r="6.7"/>
			<circle class="st4" cx="516.6" cy="537.6" r="6.7"/>
			<circle class="st5" cx="518.4" cy="537.7" r="6.7"/>
			<circle class="st5" cx="520.1" cy="537.8" r="6.7"/>
			<circle class="st5" cx="521.9" cy="538" r="6.7"/>
			<circle class="st5" cx="523.7" cy="538.1" r="6.7"/>
			<circle class="st6" cx="525.5" cy="538.2" r="6.7"/>
			<circle class="st6" cx="527.2" cy="538.3" r="6.7"/>
			
				<ellipse transform="matrix(0.9957 -9.264213e-02 9.264213e-02 0.9957 -47.6108 51.3224)" class="st6" cx="529" cy="538.5" rx="6.7" ry="6.7"/>
			
				<ellipse transform="matrix(0.9957 -9.264210e-02 9.264210e-02 0.9957 -47.6165 51.4901)" class="st6" cx="530.8" cy="538.6" rx="6.7" ry="6.7"/>
			
				<ellipse transform="matrix(0.9957 -9.264212e-02 9.264212e-02 0.9957 -47.6187 51.6531)" class="st6" cx="532.5" cy="538.7" rx="6.7" ry="6.7"/>
			
				<ellipse transform="matrix(0.9957 -9.264219e-02 9.264219e-02 0.9957 -47.6245 51.8208)" class="st7" cx="534.4" cy="538.9" rx="6.7" ry="6.7"/>
			
				<ellipse transform="matrix(0.9957 -9.264211e-02 9.264211e-02 0.9957 -47.6267 51.9838)" class="st7" cx="536.1" cy="539" rx="6.7" ry="6.7"/>
			
				<ellipse transform="matrix(0.9957 -9.264205e-02 9.264205e-02 0.9957 -47.6323 52.1514)" class="st8" cx="537.9" cy="539.1" rx="6.7" ry="6.7"/>
			
				<ellipse transform="matrix(0.9957 -9.264211e-02 9.264211e-02 0.9957 -47.6387 52.3151)" class="st8" cx="539.7" cy="539.3" rx="6.7" ry="6.7"/>
			
				<ellipse transform="matrix(0.9957 -9.264212e-02 9.264212e-02 0.9957 -47.6403 52.4822)" class="st8" cx="541.5" cy="539.4" rx="6.7" ry="6.7"/>
			
				<ellipse transform="matrix(0.9957 -9.264206e-02 9.264206e-02 0.9957 -47.6466 52.6457)" class="st9" cx="543.2" cy="539.5" rx="6.7" ry="6.7"/>
			
				<ellipse transform="matrix(0.9957 -9.264211e-02 9.264211e-02 0.9957 -47.6488 52.8088)" class="st9" cx="545" cy="539.6" rx="6.7" ry="6.7"/>
			
				<ellipse transform="matrix(0.9957 -9.264223e-02 9.264223e-02 0.9957 -47.6545 52.9765)" class="st9" cx="546.8" cy="539.8" rx="6.7" ry="6.7"/>
			
				<ellipse transform="matrix(0.9957 -9.264217e-02 9.264217e-02 0.9957 -47.6608 53.1401)" class="st9" cx="548.5" cy="539.9" rx="6.7" ry="6.7"/>
			
				<ellipse transform="matrix(0.9957 -9.264196e-02 9.264196e-02 0.9957 -47.6623 53.3071)" class="st10" cx="550.3" cy="540" rx="6.7" ry="6.7"/>
			
				<ellipse transform="matrix(0.9957 -9.264210e-02 9.264210e-02 0.9957 -47.6687 53.4707)" class="st10" cx="552.1" cy="540.2" rx="6.7" ry="6.7"/>
			
				<ellipse transform="matrix(0.9957 -9.264211e-02 9.264211e-02 0.9957 -47.6703 53.6379)" class="st10" cx="553.9" cy="540.3" rx="6.7" ry="6.7"/>
			
				<ellipse transform="matrix(0.9957 -9.264209e-02 9.264209e-02 0.9957 -47.6766 53.8014)" class="st10" cx="555.7" cy="540.4" rx="6.7" ry="6.7"/>
			
				<ellipse transform="matrix(0.9957 -9.264204e-02 9.264204e-02 0.9957 -47.6829 53.965)" class="st10" cx="557.4" cy="540.6" rx="6.7" ry="6.7"/>
			
				<ellipse transform="matrix(0.9957 -9.264212e-02 9.264212e-02 0.9957 -47.6845 54.1321)" class="st11" cx="559.2" cy="540.7" rx="6.7" ry="6.7"/>
			
				<ellipse transform="matrix(0.9957 -9.264211e-02 9.264211e-02 0.9957 -47.6908 54.2957)" class="st11" cx="561" cy="540.8" rx="6.7" ry="6.7"/>
			
				<ellipse transform="matrix(0.9957 -9.264208e-02 9.264208e-02 0.9957 -47.6924 54.4628)" class="st12" cx="562.8" cy="540.9" rx="6.7" ry="6.7"/>
			
				<ellipse transform="matrix(0.9957 -9.264213e-02 9.264213e-02 0.9957 -47.7028 54.627)" class="st12" cx="564.5" cy="541.1" rx="6.7" ry="6.7"/>
			
				<ellipse transform="matrix(0.9957 -9.264209e-02 9.264209e-02 0.9957 -47.7214 54.7923)" class="st13" cx="566.3" cy="541.4" rx="6.7" ry="6.7"/>
			
				<ellipse transform="matrix(0.9957 -9.264207e-02 9.264207e-02 0.9957 -47.7528 54.9552)" class="st13" cx="568" cy="541.8" rx="6.7" ry="6.7"/>
			
				<ellipse transform="matrix(0.9957 -9.264214e-02 9.264214e-02 0.9957 -47.8023 55.1082)" class="st13" cx="569.7" cy="542.4" rx="6.7" ry="6.7"/>
			
				<ellipse transform="matrix(0.9957 -9.264210e-02 9.264210e-02 0.9957 -47.8775 55.2564)" class="st13" cx="571.2" cy="543.3" rx="6.7" ry="6.7"/>
			
				<ellipse transform="matrix(0.9957 -9.264208e-02 9.264208e-02 0.9957 -47.9812 55.3794)" class="st13" cx="572.5" cy="544.5" rx="6.7" ry="6.7"/>
			
				<ellipse transform="matrix(0.9957 -9.264212e-02 9.264212e-02 0.9957 -48.1002 55.4837)" class="st14" cx="573.6" cy="545.8" rx="6.7" ry="6.7"/>
			
				<ellipse transform="matrix(0.9957 -9.264204e-02 9.264204e-02 0.9957 -48.2347 55.5651)" class="st14" cx="574.4" cy="547.3" rx="6.7" ry="6.7"/>
			
				<ellipse transform="matrix(0.9957 -9.264222e-02 9.264222e-02 0.9957 -48.3799 55.6314)" class="st14" cx="575" cy="548.9" rx="6.7" ry="6.7"/>
			
				<ellipse transform="matrix(0.9957 -9.264213e-02 9.264213e-02 0.9957 -48.5354 55.6823)" class="st14" cx="575.5" cy="550.6" rx="6.7" ry="6.7"/>
			
				<ellipse transform="matrix(0.9957 -9.264201e-02 9.264201e-02 0.9957 -48.7008 55.7221)" class="st15" cx="575.8" cy="552.4" rx="6.7" ry="6.7"/>
			
				<ellipse transform="matrix(0.9957 -9.264208e-02 9.264208e-02 0.9957 -48.8716 55.7544)" class="st15" cx="576.1" cy="554.3" rx="6.7" ry="6.7"/>
			
				<ellipse transform="matrix(0.9957 -9.264202e-02 9.264202e-02 0.9957 -49.0393 55.7779)" class="st15" cx="576.3" cy="556.1" rx="6.7" ry="6.7"/>
			
				<ellipse transform="matrix(0.9957 -9.264214e-02 9.264214e-02 0.9957 -49.2124 55.7938)" class="st15" cx="576.3" cy="558" rx="6.7" ry="6.7"/>
			<circle class="st16" cx="576.4" cy="559.7" r="6.8"/>
			<circle class="st17" cx="576.5" cy="561.5" r="6.8"/>
			<circle class="st17" cx="576.6" cy="563.3" r="6.8"/>
			<circle class="st17" cx="576.7" cy="565.1" r="6.8"/>
			<circle class="st17" cx="576.7" cy="566.9" r="6.8"/>
			<circle class="st18" cx="576.8" cy="568.7" r="6.8"/>
			<circle class="st18" cx="576.9" cy="570.4" r="6.8"/>
			<circle class="st18" cx="577" cy="572.2" r="6.8"/>
			<circle class="st18" cx="577.1" cy="574" r="6.8"/>
			<circle class="st18" cx="577.2" cy="575.7" r="6.8"/>
			<circle class="st19" cx="577.2" cy="577.5" r="6.8"/>
			<circle class="st19" cx="577.3" cy="579.3" r="6.8"/>
			<circle class="st19" cx="577.4" cy="581.1" r="6.8"/>
			<circle class="st19" cx="577.5" cy="582.9" r="6.8"/>
			<circle class="st143" cx="577.5" cy="584.7" r="6.8"/>
			<circle class="st20" cx="577.6" cy="586.4" r="6.8"/>
			<circle class="st20" cx="577.7" cy="588.2" r="6.8"/>
			<circle class="st20" cx="577.8" cy="590" r="6.8"/>
			<circle class="st20" cx="577.8" cy="591.8" r="6.8"/>
			<circle class="st21" cx="577.9" cy="593.6" r="6.8"/>
			<circle class="st21" cx="578" cy="595.4" r="6.8"/>
			<circle class="st21" cx="578.1" cy="597.1" r="6.8"/>
			<circle class="st21" cx="578.1" cy="598.9" r="6.8"/>
			<circle class="st21" cx="578.2" cy="600.7" r="6.8"/>
			<circle class="st22" cx="578.3" cy="602.5" r="6.8"/>
			<circle class="st22" cx="578.4" cy="604.2" r="6.8"/>
			<circle class="st22" cx="578.4" cy="606" r="6.8"/>
			<circle class="st22" cx="578.6" cy="607.8" r="6.8"/>
			<circle class="st23" cx="578.6" cy="609.6" r="6.8"/>
			<circle class="st24" cx="578.7" cy="611.3" r="6.8"/>
			<circle class="st24" cx="578.8" cy="613.1" r="6.8"/>
			<circle class="st24" cx="578.9" cy="614.9" r="6.8"/>
			<circle class="st24" cx="579" cy="616.7" r="6.8"/>
			<circle class="st25" cx="579" cy="618.5" r="6.8"/>
			<circle class="st25" cx="579.1" cy="620.3" r="6.8"/>
			<circle class="st25" cx="579.2" cy="622" r="6.8"/>
			<circle class="st25" cx="579.3" cy="623.8" r="6.8"/>
			<circle class="st26" cx="579.3" cy="625.6" r="6.8"/>
			<circle class="st26" cx="579.4" cy="627.4" r="6.8"/>
			<circle class="st26" cx="579.5" cy="629.2" r="6.8"/>
			<circle class="st26" cx="579.6" cy="631" r="6.8"/>
			<circle class="st26" cx="579.6" cy="632.7" r="6.8"/>
			<circle class="st27" cx="579.7" cy="634.5" r="6.8"/>
			<circle class="st27" cx="579.8" cy="636.3" r="6.8"/>
			
				<ellipse transform="matrix(0.9957 -9.264222e-02 9.264222e-02 0.9957 -56.6157 56.4637)" class="st28" cx="579.9" cy="638" rx="6.8" ry="6.8"/>
			
				<ellipse transform="matrix(0.9957 -9.264213e-02 9.264213e-02 0.9957 -56.7805 56.4784)" class="st28" cx="579.9" cy="639.8" rx="6.8" ry="6.8"/>
			
				<ellipse transform="matrix(0.9957 -9.264209e-02 9.264209e-02 0.9957 -56.9447 56.4972)" class="st29" cx="580.1" cy="641.6" rx="6.8" ry="6.8"/>
			
				<ellipse transform="matrix(0.9957 -9.264221e-02 9.264221e-02 0.9957 -57.1096 56.512)" class="st29" cx="580.1" cy="643.4" rx="6.8" ry="6.8"/>
			<circle class="st29" cx="580.2" cy="645.2" r="6.8"/>
			<circle class="st29" cx="580.3" cy="646.9" r="6.8"/>
			<circle class="st29" cx="580.4" cy="648.7" r="6.8"/>
			<circle class="st30" cx="580.4" cy="650.5" r="6.8"/>
			<circle class="st30" cx="580.5" cy="652.3" r="6.8"/>
			<circle class="st30" cx="580.6" cy="654.1" r="6.8"/>
			<circle class="st30" cx="580.7" cy="655.9" r="6.8"/>
			<circle class="st31" cx="580.7" cy="657.6" r="6.8"/>
			<circle class="st31" cx="580.8" cy="659.4" r="6.8"/>
			<circle class="st31" cx="580.9" cy="661.2" r="6.8"/>
			<circle class="st31" cx="581" cy="662.9" r="6.8"/>
			<circle class="st32" cx="581" cy="664.7" r="6.8"/>
			<circle class="st33" cx="581.1" cy="666.5" r="6.8"/>
			<circle class="st33" cx="581.2" cy="668.3" r="6.8"/>
			<circle class="st33" cx="581.3" cy="670.1" r="6.8"/>
			<circle class="st33" cx="581.4" cy="671.9" r="6.8"/>
			<circle class="st34" cx="581.4" cy="673.6" r="6.8"/>
			<circle class="st34" cx="581.5" cy="675.4" r="6.8"/>
			<circle class="st34" cx="581.6" cy="677.2" r="6.8"/>
			<circle class="st34" cx="581.7" cy="679" r="6.8"/>
			<circle class="st34" cx="581.8" cy="680.8" r="6.9"/>
			<circle class="st35" cx="581.9" cy="682.6" r="6.9"/>
			<circle class="st35" cx="581.9" cy="684.3" r="6.9"/>
			<circle class="st35" cx="582" cy="686.1" r="6.9"/>
			<circle class="st35" cx="582.1" cy="687.9" r="6.9"/>
			<circle class="st36" cx="582.2" cy="689.7" r="6.9"/>
			<circle class="st37" cx="582.2" cy="691.4" r="6.9"/>
			<circle class="st37" cx="582.3" cy="693.2" r="6.9"/>
			<circle class="st37" cx="582.4" cy="695" r="6.9"/>
			<circle class="st37" cx="582.5" cy="696.8" r="6.9"/>
			<circle class="st38" cx="582.5" cy="698.6" r="6.9"/>
			<circle class="st38" cx="582.6" cy="700.3" r="6.9"/>
			<circle class="st38" cx="582.7" cy="702.1" r="6.9"/>
			<circle class="st38" cx="582.8" cy="703.9" r="6.9"/>
			<circle class="st38" cx="582.8" cy="705.7" r="6.9"/>
			<circle class="st39" cx="582.9" cy="707.5" r="6.9"/>
			<circle class="st39" cx="583" cy="709.2" r="6.9"/>
			<circle class="st39" cx="583.1" cy="711" r="6.9"/>
			<circle class="st39" cx="583.2" cy="712.8" r="6.9"/>
			<circle class="st144" cx="583.3" cy="714.6" r="6.9"/>
			<circle class="st40" cx="583.3" cy="716.4" r="6.9"/>
			<circle class="st40" cx="583.4" cy="718.2" r="6.9"/>
			<circle class="st40" cx="583.5" cy="719.9" r="6.9"/>
			<circle class="st40" cx="583.6" cy="721.7" r="6.9"/>
			<circle class="st41" cx="583.6" cy="723.5" r="6.9"/>
			<circle class="st41" cx="583.7" cy="725.2" r="6.9"/>
			<circle class="st41" cx="583.8" cy="727" r="6.9"/>
			<circle class="st41" cx="583.9" cy="728.8" r="6.9"/>
			<circle class="st42" cx="584" cy="730.6" r="6.9"/>
			<circle class="st42" cx="584" cy="732.4" r="6.9"/>
			<circle class="st42" cx="584.1" cy="734.2" r="6.9"/>
			<circle class="st42" cx="584.2" cy="735.9" r="6.9"/>
			<circle class="st42" cx="584.3" cy="737.7" r="6.9"/>
			<circle class="st43" cx="584.3" cy="739.5" r="6.9"/>
			<circle class="st43" cx="584.4" cy="741.3" r="6.9"/>
			<circle class="st44" cx="584.5" cy="743.1" r="6.9"/>
			<circle class="st44" cx="584.6" cy="744.9" r="6.9"/>
			<circle class="st45" cx="584.7" cy="746.6" r="6.9"/>
			<circle class="st45" cx="584.8" cy="748.4" r="6.9"/>
			<circle class="st45" cx="584.8" cy="750.1" r="6.9"/>
			<circle class="st45" cx="584.9" cy="751.9" r="6.9"/>
			<circle class="st45" cx="585" cy="753.7" r="6.9"/>
			<circle class="st46" cx="585.1" cy="755.5" r="6.9"/>
			<circle class="st46" cx="585.1" cy="757.3" r="6.9"/>
			<circle class="st46" cx="585.2" cy="759.1" r="6.9"/>
			<circle class="st46" cx="585.3" cy="760.8" r="6.9"/>
			<circle class="st46" cx="585.4" cy="762.6" r="6.9"/>
			<circle class="st47" cx="585.4" cy="764.4" r="6.9"/>
			<circle class="st47" cx="585.5" cy="766.2" r="6.9"/>
			<circle class="st48" cx="585.6" cy="768" r="6.9"/>
			<circle class="st48" cx="585.7" cy="769.8" r="6.9"/>
			<circle class="st49" cx="585.8" cy="771.5" r="6.9"/>
			<circle class="st49" cx="585.8" cy="773.3" r="6.9"/>
			<circle class="st49" cx="585.9" cy="775.1" r="6.9"/>
			<circle class="st49" cx="586.1" cy="776.3" r="6.9"/>
			<circle class="st49" cx="586.6" cy="774.5" r="6.9"/>
			<circle class="st50" cx="587" cy="772.8" r="6.9"/>
			<circle class="st50" cx="587.5" cy="771.1" r="6.9"/>
			<circle class="st50" cx="588" cy="769.4" r="6.9"/>
			<circle class="st50" cx="588.5" cy="767.7" r="6.9"/>
			<circle class="st51" cx="588.9" cy="766" r="6.9"/>
			<circle class="st51" cx="589.5" cy="764.3" r="6.9"/>
			<circle class="st51" cx="589.9" cy="762.6" r="6.9"/>
			<circle class="st51" cx="590.4" cy="760.9" r="6.9"/>
			<circle class="st52" cx="590.9" cy="759.1" r="6.9"/>
			<circle class="st53" cx="591.3" cy="757.4" r="6.9"/>
			<circle class="st53" cx="591.8" cy="755.7" r="6.9"/>
			<circle class="st53" cx="592.3" cy="754" r="6.9"/>
			<circle class="st53" cx="592.7" cy="752.3" r="6.9"/>
			<circle class="st54" cx="593.2" cy="750.5" r="6.9"/>
			<circle class="st54" cx="593.7" cy="748.8" r="6.9"/>
			<circle class="st54" cx="594.1" cy="747.1" r="6.9"/>
			<circle class="st54" cx="594.5" cy="745.4" r="6.9"/>
			<circle class="st54" cx="595" cy="743.7" r="6.9"/>
			<circle class="st55" cx="595.5" cy="742" r="6.9"/>
			<circle class="st55" cx="595.9" cy="740.3" r="6.9"/>
			<circle class="st55" cx="596.4" cy="738.5" r="6.9"/>
			<circle class="st55" cx="596.8" cy="736.8" r="6.9"/>
			<circle class="st145" cx="597.3" cy="735.1" r="6.9"/>
			<circle class="st56" cx="597.7" cy="733.3" r="6.9"/>
			<circle class="st56" cx="598.1" cy="731.6" r="6.9"/>
			<circle class="st56" cx="598.6" cy="729.9" r="6.9"/>
			<circle class="st56" cx="599" cy="728.2" r="6.9"/>
			<circle class="st57" cx="599.5" cy="726.5" r="6.9"/>
			<circle class="st57" cx="599.9" cy="724.7" r="6.9"/>
			<circle class="st57" cx="600.3" cy="723" r="6.9"/>
			<circle class="st57" cx="600.8" cy="721.3" r="6.9"/>
			<circle class="st58" cx="601.2" cy="719.5" r="6.9"/>
			<circle class="st58" cx="601.6" cy="717.8" r="6.9"/>
			<circle class="st58" cx="602" cy="716.1" r="6.9"/>
			<circle class="st58" cx="602.4" cy="714.4" r="6.9"/>
			<circle class="st58" cx="602.9" cy="712.6" r="6.9"/>
			<circle class="st59" cx="603.3" cy="710.9" r="6.9"/>
			<circle class="st60" cx="603.7" cy="709.2" r="6.9"/>
			<circle class="st60" cx="604.1" cy="707.5" r="6.9"/>
			<circle class="st60" cx="604.5" cy="705.7" r="6.9"/>
			<circle class="st60" cx="605" cy="704" r="6.9"/>
			<circle class="st61" cx="605.3" cy="702.2" r="6.9"/>
			<circle class="st61" cx="605.8" cy="700.5" r="6.9"/>
			<circle class="st61" cx="606.2" cy="698.8" r="6.9"/>
			<circle class="st61" cx="606.6" cy="697" r="6.9"/>
			<circle class="st62" cx="607" cy="695.3" r="6.9"/>
			<circle class="st62" cx="607.4" cy="693.6" r="6.9"/>
			<circle class="st62" cx="607.8" cy="691.9" r="7"/>
			<circle class="st62" cx="608.2" cy="690.1" r="7"/>
			<circle class="st62" cx="608.6" cy="688.4" r="7"/>
			<circle class="st63" cx="608.9" cy="686.7" r="7"/>
			<circle class="st63" cx="609.3" cy="684.9" r="7"/>
			<circle class="st64" cx="609.7" cy="683.2" r="7"/>
			<circle class="st64" cx="610.1" cy="681.4" r="7"/>
			<circle class="st65" cx="610.5" cy="679.7" r="7"/>
			<circle class="st65" cx="610.9" cy="677.9" r="7"/>
			<circle class="st65" cx="611.2" cy="676.2" r="7"/>
			<circle class="st65" cx="611.6" cy="674.5" r="7"/>
			<circle class="st65" cx="612" cy="672.7" r="7"/>
			<circle class="st66" cx="612.4" cy="671" r="7"/>
			<circle class="st66" cx="612.7" cy="669.3" r="7"/>
			<circle class="st66" cx="613.1" cy="667.5" r="7"/>
			<circle class="st66" cx="613.5" cy="665.7" r="7"/>
			<circle class="st67" cx="613.9" cy="664" r="7"/>
			<circle class="st67" cx="614.2" cy="662.3" r="7"/>
			<circle class="st67" cx="614.6" cy="660.5" r="7"/>
			<circle class="st67" cx="614.9" cy="658.8" r="7"/>
			<circle class="st68" cx="615.3" cy="657" r="7"/>
			<circle class="st69" cx="615.7" cy="655.3" r="7"/>
			<circle class="st69" cx="616" cy="653.5" r="7"/>
			<circle class="st69" cx="616.4" cy="651.8" r="7"/>
			<circle class="st69" cx="616.7" cy="650" r="7"/>
			<circle class="st70" cx="617.1" cy="648.3" r="7"/>
			<circle class="st70" cx="617.4" cy="646.5" r="7"/>
			<circle class="st70" cx="617.7" cy="644.8" r="7"/>
			<circle class="st70" cx="618.1" cy="643" r="7"/>
			<circle class="st70" cx="618.4" cy="641.3" r="7"/>
			
				<ellipse transform="matrix(0.9957 -9.264216e-02 9.264216e-02 0.9957 -56.5899 60.073)" class="st71" cx="618.8" cy="639.6" rx="7" ry="7"/>
			<circle class="st71" cx="619.1" cy="637.8" r="7"/>
			<circle class="st71" cx="619.4" cy="636.1" r="7"/>
			<circle class="st71" cx="619.7" cy="634.3" r="7"/>
			<circle class="st146" cx="620.1" cy="632.6" r="7"/>
			<circle class="st72" cx="620.4" cy="630.8" r="7"/>
			<circle class="st72" cx="620.7" cy="629" r="7"/>
			<circle class="st72" cx="621.1" cy="627.3" r="7"/>
			<circle class="st72" cx="621.3" cy="625.5" r="7"/>
			<circle class="st73" cx="621.7" cy="623.8" r="7"/>
			<circle class="st73" cx="622" cy="622" r="7"/>
			<circle class="st73" cx="622.3" cy="620.3" r="7"/>
			<circle class="st73" cx="622.6" cy="618.5" r="7"/>
			<circle class="st73" cx="622.9" cy="616.8" r="7"/>
			<circle class="st74" cx="623.2" cy="615" r="7"/>
			<circle class="st74" cx="623.6" cy="613.3" r="7"/>
			<circle class="st74" cx="623.8" cy="611.5" r="7"/>
			<circle class="st74" cx="624.1" cy="609.7" r="7"/>
			<circle class="st75" cx="624.4" cy="608" r="7"/>
			<circle class="st76" cx="624.7" cy="606.2" r="7"/>
			<circle class="st76" cx="625" cy="604.4" r="7"/>
			<circle class="st76" cx="625.3" cy="602.7" r="7"/>
			<circle class="st76" cx="625.6" cy="600.9" r="7"/>
			<circle class="st77" cx="625.9" cy="599.2" r="7"/>
			<circle class="st77" cx="626.1" cy="597.4" r="7"/>
			<circle class="st77" cx="626.4" cy="595.6" r="7"/>
			<circle class="st77" cx="626.7" cy="593.9" r="7"/>
			<circle class="st78" cx="627" cy="592.1" r="7"/>
			<circle class="st78" cx="627.3" cy="590.4" r="7"/>
			<circle class="st78" cx="627.6" cy="588.6" r="7"/>
			<circle class="st78" cx="627.8" cy="586.8" r="7"/>
			<circle class="st78" cx="628.1" cy="585.1" r="7"/>
			<circle class="st79" cx="628.4" cy="583.3" r="7"/>
			<circle class="st79" cx="628.6" cy="581.6" r="7"/>
			<circle class="st80" cx="628.9" cy="579.8" r="7"/>
			<circle class="st80" cx="629.1" cy="578" r="7"/>
			<circle class="st81" cx="629.4" cy="576.2" r="7"/>
			<circle class="st81" cx="629.7" cy="574.5" r="7"/>
			<circle class="st81" cx="629.9" cy="572.7" r="7"/>
			
				<ellipse transform="matrix(0.9957 -9.264208e-02 9.264208e-02 0.9957 -50.1832 60.8361)" class="st81" cx="630.2" cy="570.9" rx="7.1" ry="7.1"/>
			
				<ellipse transform="matrix(0.9957 -9.264215e-02 9.264215e-02 0.9957 -50.0185 60.8506)" class="st81" cx="630.4" cy="569.2" rx="7.1" ry="7.1"/>
			
				<ellipse transform="matrix(0.9957 -9.264209e-02 9.264209e-02 0.9957 -49.8538 60.865)" class="st82" cx="630.7" cy="567.4" rx="7.1" ry="7.1"/>
			
				<ellipse transform="matrix(0.9957 -9.264217e-02 9.264217e-02 0.9957 -49.6891 60.8795)" class="st82" cx="630.9" cy="565.6" rx="7.1" ry="7.1"/>
			
				<ellipse transform="matrix(0.9957 -9.264210e-02 9.264210e-02 0.9957 -49.5243 60.894)" class="st82" cx="631.1" cy="563.9" rx="7.1" ry="7.1"/>
			
				<ellipse transform="matrix(0.9957 -9.264214e-02 9.264214e-02 0.9957 -49.3596 60.9085)" class="st82" cx="631.4" cy="562.1" rx="7.1" ry="7.1"/>
			
				<ellipse transform="matrix(0.9957 -9.264211e-02 9.264211e-02 0.9957 -49.1948 60.9229)" class="st83" cx="631.6" cy="560.3" rx="7.1" ry="7.1"/>
			
				<ellipse transform="matrix(0.9957 -9.264214e-02 9.264214e-02 0.9957 -49.0301 60.9374)" class="st83" cx="631.8" cy="558.6" rx="7.1" ry="7.1"/>
			
				<ellipse transform="matrix(0.9957 -9.264203e-02 9.264203e-02 0.9957 -48.8653 60.9518)" class="st83" cx="632.1" cy="556.8" rx="7.1" ry="7.1"/>
			
				<ellipse transform="matrix(0.9957 -9.264217e-02 9.264217e-02 0.9957 -48.7007 60.9664)" class="st83" cx="632.3" cy="555" rx="7.1" ry="7.1"/>
			
				<ellipse transform="matrix(0.9957 -9.264210e-02 9.264210e-02 0.9957 -48.5359 60.9808)" class="st84" cx="632.6" cy="553.3" rx="7.1" ry="7.1"/>
			
				<ellipse transform="matrix(0.9957 -9.264207e-02 9.264207e-02 0.9957 -48.3717 60.9912)" class="st85" cx="632.8" cy="551.5" rx="7.1" ry="7.1"/>
			
				<ellipse transform="matrix(0.9957 -9.264214e-02 9.264214e-02 0.9957 -48.207 61.0057)" class="st85" cx="633" cy="549.7" rx="7.1" ry="7.1"/>
			
				<ellipse transform="matrix(0.9957 -9.264214e-02 9.264214e-02 0.9957 -48.0423 61.0202)" class="st85" cx="633.2" cy="548" rx="7.1" ry="7.1"/>
			
				<ellipse transform="matrix(0.9957 -9.264213e-02 9.264213e-02 0.9957 -47.8781 61.0305)" class="st85" cx="633.4" cy="546.2" rx="7.1" ry="7.1"/>
			
				<ellipse transform="matrix(0.9957 -9.264208e-02 9.264208e-02 0.9957 -47.7093 61.0444)" class="st85" cx="633.7" cy="544.4" rx="7.1" ry="7.1"/>
			
				<ellipse transform="matrix(0.9957 -9.264216e-02 9.264216e-02 0.9957 -47.5451 61.0548)" class="st86" cx="633.8" cy="542.6" rx="7.1" ry="7.1"/>
			
				<ellipse transform="matrix(0.9957 -9.264204e-02 9.264204e-02 0.9957 -47.3803 61.0692)" class="st86" cx="634.1" cy="540.9" rx="7.1" ry="7.1"/>
			
				<ellipse transform="matrix(0.9957 -9.264204e-02 9.264204e-02 0.9957 -47.2162 61.0796)" class="st86" cx="634.3" cy="539.1" rx="7.1" ry="7.1"/>
			
				<ellipse transform="matrix(0.9957 -9.264217e-02 9.264217e-02 0.9957 -47.0521 61.0901)" class="st86" cx="634.5" cy="537.3" rx="7.1" ry="7.1"/>
			
				<ellipse transform="matrix(0.9957 -9.264216e-02 9.264216e-02 0.9957 -46.8873 61.1046)" class="st87" cx="634.7" cy="535.6" rx="7.1" ry="7.1"/>
			
				<ellipse transform="matrix(0.9957 -9.264210e-02 9.264210e-02 0.9957 -46.7191 61.1143)" class="st87" cx="634.9" cy="533.8" rx="7.1" ry="7.1"/>
			
				<ellipse transform="matrix(0.9957 -9.264208e-02 9.264208e-02 0.9957 -46.5549 61.1247)" class="st87" cx="635.1" cy="532" rx="7.1" ry="7.1"/>
			
				<ellipse transform="matrix(0.9957 -9.264217e-02 9.264217e-02 0.9957 -46.3908 61.1351)" class="st87" cx="635.3" cy="530.2" rx="7.1" ry="7.1"/>
			
				<ellipse transform="matrix(0.9957 -9.264207e-02 9.264207e-02 0.9957 -46.2266 61.1455)" class="st147" cx="635.5" cy="528.5" rx="7.1" ry="7.1"/>
			
				<ellipse transform="matrix(0.9957 -9.264205e-02 9.264205e-02 0.9957 -46.0583 61.1553)" class="st88" cx="635.7" cy="526.7" rx="7.1" ry="7.1"/>
			
				<ellipse transform="matrix(0.9957 -9.264205e-02 9.264205e-02 0.9957 -45.8895 61.1692)" class="st88" cx="635.9" cy="524.9" rx="7.1" ry="7.1"/>
			
				<ellipse transform="matrix(0.9957 -9.264210e-02 9.264210e-02 0.9957 -45.7207 61.1831)" class="st88" cx="636.1" cy="523" rx="7.1" ry="7.1"/>
			
				<ellipse transform="matrix(0.9957 -9.264217e-02 9.264217e-02 0.9957 -45.5513 61.2011)" class="st88" cx="636.4" cy="521.2" rx="7.1" ry="7.1"/>
			
				<ellipse transform="matrix(0.9957 -9.264214e-02 9.264214e-02 0.9957 -45.3854 61.2238)" class="st89" cx="636.7" cy="519.5" rx="7.1" ry="7.1"/>
			
				<ellipse transform="matrix(0.9957 -9.264218e-02 9.264218e-02 0.9957 -45.219 61.2505)" class="st89" cx="637.1" cy="517.7" rx="7.1" ry="7.1"/>
			
				<ellipse transform="matrix(0.9957 -9.264208e-02 9.264208e-02 0.9957 -45.0554 61.286)" class="st89" cx="637.6" cy="515.9" rx="7.1" ry="7.1"/>
			
				<ellipse transform="matrix(0.9957 -9.264211e-02 9.264211e-02 0.9957 -44.896 61.3221)" class="st89" cx="638.1" cy="514.2" rx="7.1" ry="7.1"/>
			
				<ellipse transform="matrix(0.9957 -9.264210e-02 9.264210e-02 0.9957 -44.739 61.371)" class="st89" cx="638.7" cy="512.6" rx="7.1" ry="7.1"/>
			<circle class="st90" cx="639.4" cy="511" r="7.1"/>
			<circle class="st90" cx="640.1" cy="509.4" r="7.1"/>
			<circle class="st90" cx="641" cy="507.9" r="7.1"/>
			<circle class="st90" cx="642" cy="506.5" r="7.1"/>
			<circle class="st91" cx="643.2" cy="505.2" r="7.1"/>
			<circle class="st92" cx="644.4" cy="503.9" r="7.1"/>
			<circle class="st92" cx="645.8" cy="502.7" r="7.1"/>
			<circle class="st92" cx="647.3" cy="501.7" r="7.1"/>
			<circle class="st92" cx="648.7" cy="500.8" r="7.1"/>
			<circle class="st93" cx="650.3" cy="499.9" r="7.1"/>
			<circle class="st93" cx="651.9" cy="499.1" r="7.1"/>
			<circle class="st93" cx="653.5" cy="498.4" r="7.1"/>
			<circle class="st93" cx="655.2" cy="497.7" r="7.1"/>
			<circle class="st94" cx="656.8" cy="497.1" r="7.1"/>
			<circle class="st94" cx="658.5" cy="496.4" r="7.1"/>
			<circle class="st94" cx="660.1" cy="495.8" r="7.1"/>
			<circle class="st94" cx="661.8" cy="495.1" r="7.1"/>
			<circle class="st94" cx="663.4" cy="494.5" r="7.1"/>
			<circle class="st95" cx="665.1" cy="493.8" r="7.1"/>
			<circle class="st95" cx="666.7" cy="493.2" r="7.1"/>
			<circle class="st96" cx="668.4" cy="492.5" r="7.1"/>
			<circle class="st96" cx="670.1" cy="491.9" r="7.1"/>
			<circle class="st97" cx="671.7" cy="491.2" r="7.1"/>
			<circle class="st97" cx="673.4" cy="490.6" r="7.1"/>
			<circle class="st97" cx="675" cy="489.9" r="7.1"/>
			<circle class="st97" cx="676.7" cy="489.3" r="7.1"/>
			<circle class="st97" cx="678.4" cy="488.7" r="7.1"/>
			<circle class="st98" cx="680" cy="488" r="7.1"/>
			<circle class="st98" cx="681.7" cy="487.4" r="7.1"/>
			<circle class="st98" cx="683.3" cy="486.7" r="7.1"/>
			<circle class="st98" cx="685" cy="486.1" r="7.1"/>
			<circle class="st98" cx="686.6" cy="485.4" r="7.1"/>
			<circle class="st99" cx="688.3" cy="484.7" r="7.1"/>
			<circle class="st99" cx="690" cy="484.1" r="7.1"/>
			
				<ellipse transform="matrix(0.9957 -9.264216e-02 9.264216e-02 0.9957 -41.8118 66.1552)" class="st100" cx="691.7" cy="483.4" rx="7.2" ry="7.2"/>
			
				<ellipse transform="matrix(0.9957 -9.264208e-02 9.264208e-02 0.9957 -41.745 66.3043)" class="st100" cx="693.3" cy="482.8" rx="7.2" ry="7.2"/>
			
				<ellipse transform="matrix(0.9957 -9.264214e-02 9.264214e-02 0.9957 -41.6782 66.4535)" class="st101" cx="694.9" cy="482.1" rx="7.2" ry="7.2"/>
			
				<ellipse transform="matrix(0.9957 -9.264217e-02 9.264217e-02 0.9957 -41.6109 66.6068)" class="st101" cx="696.6" cy="481.5" rx="7.2" ry="7.2"/>
			
				<ellipse transform="matrix(0.9957 -9.264204e-02 9.264204e-02 0.9957 -41.5441 66.7559)" class="st101" cx="698.3" cy="480.8" rx="7.2" ry="7.2"/>
			
				<ellipse transform="matrix(0.9957 -9.264214e-02 9.264214e-02 0.9957 -41.4767 66.9092)" class="st101" cx="699.9" cy="480.2" rx="7.2" ry="7.2"/>
			
				<ellipse transform="matrix(0.9957 -9.264205e-02 9.264205e-02 0.9957 -41.4099 67.0584)" class="st101" cx="701.6" cy="479.6" rx="7.2" ry="7.2"/>
			
				<ellipse transform="matrix(0.9957 -9.264214e-02 9.264214e-02 0.9957 -41.3426 67.2117)" class="st102" cx="703.3" cy="478.9" rx="7.2" ry="7.2"/>
			
				<ellipse transform="matrix(0.9957 -9.264214e-02 9.264214e-02 0.9957 -41.2758 67.3609)" class="st102" cx="704.9" cy="478.3" rx="7.2" ry="7.2"/>
			
				<ellipse transform="matrix(0.9957 -9.264217e-02 9.264217e-02 0.9957 -41.209 67.5101)" class="st102" cx="706.5" cy="477.6" rx="7.2" ry="7.2"/>
			
				<ellipse transform="matrix(0.9957 -9.264209e-02 9.264209e-02 0.9957 -41.1416 67.6633)" class="st102" cx="708.2" cy="477" rx="7.2" ry="7.2"/>
			
				<ellipse transform="matrix(0.9957 -9.264217e-02 9.264217e-02 0.9957 -41.0749 67.8125)" class="st103" cx="709.9" cy="476.3" rx="7.2" ry="7.2"/>
			
				<ellipse transform="matrix(0.9957 -9.264205e-02 9.264205e-02 0.9957 -41.0075 67.9657)" class="st103" cx="711.6" cy="475.7" rx="7.2" ry="7.2"/>
			
				<ellipse transform="matrix(0.9957 -9.264220e-02 9.264220e-02 0.9957 -40.9407 68.115)" class="st103" cx="713.2" cy="475" rx="7.2" ry="7.2"/>
			
				<ellipse transform="matrix(0.9957 -9.264213e-02 9.264213e-02 0.9957 -40.8733 68.2682)" class="st103" cx="714.9" cy="474.4" rx="7.2" ry="7.2"/>
			
				<ellipse transform="matrix(0.9957 -9.264217e-02 9.264217e-02 0.9957 -40.8066 68.4174)" class="st148" cx="716.5" cy="473.7" rx="7.2" ry="7.2"/>
			
				<ellipse transform="matrix(0.9957 -9.264211e-02 9.264211e-02 0.9957 -40.7398 68.5666)" class="st104" cx="718.2" cy="473.1" rx="7.2" ry="7.2"/>
			
				<ellipse transform="matrix(0.9957 -9.264214e-02 9.264214e-02 0.9957 -40.6724 68.7199)" class="st104" cx="719.8" cy="472.4" rx="7.2" ry="7.2"/>
			
				<ellipse transform="matrix(0.9957 -9.264206e-02 9.264206e-02 0.9957 -40.6056 68.869)" class="st104" cx="721.5" cy="471.8" rx="7.2" ry="7.2"/>
			
				<ellipse transform="matrix(0.9957 -9.264205e-02 9.264205e-02 0.9957 -40.5754 68.7271)" class="st104" cx="720" cy="471.4" rx="7.2" ry="7.2"/>
			
				<ellipse transform="matrix(0.9957 -9.264208e-02 9.264208e-02 0.9957 -40.5516 68.5694)" class="st105" cx="718.3" cy="471.1" rx="7.2" ry="7.2"/>
			
				<ellipse transform="matrix(0.9957 -9.264212e-02 9.264212e-02 0.9957 -40.5278 68.4118)" class="st105" cx="716.6" cy="470.7" rx="7.2" ry="7.2"/>
			
				<ellipse transform="matrix(0.9957 -9.264207e-02 9.264207e-02 0.9957 -40.5087 68.2505)" class="st105" cx="714.9" cy="470.4" rx="7.2" ry="7.2"/>
			
				<ellipse transform="matrix(0.9957 -9.264217e-02 9.264217e-02 0.9957 -40.4849 68.0929)" class="st105" cx="713.2" cy="470.1" rx="7.2" ry="7.2"/>
			
				<ellipse transform="matrix(0.9957 -9.264214e-02 9.264214e-02 0.9957 -40.4658 67.9316)" class="st105" cx="711.5" cy="469.8" rx="7.2" ry="7.2"/>
			
				<ellipse transform="matrix(0.9957 -9.264208e-02 9.264208e-02 0.9957 -40.4501 67.775)" class="st106" cx="709.8" cy="469.6" rx="7.2" ry="7.2"/>
			
				<ellipse transform="matrix(0.9957 -9.264217e-02 9.264217e-02 0.9957 -40.431 67.6139)" class="st106" cx="708.1" cy="469.3" rx="7.2" ry="7.2"/>
			
				<ellipse transform="matrix(0.9957 -9.264199e-02 9.264199e-02 0.9957 -40.4159 67.4531)" class="st106" cx="706.3" cy="469" rx="7.2" ry="7.2"/>
			
				<ellipse transform="matrix(0.9957 -9.264207e-02 9.264207e-02 0.9957 -40.4009 67.2925)" class="st106" cx="704.6" cy="468.8" rx="7.2" ry="7.2"/>
			
				<ellipse transform="matrix(0.9957 -9.264213e-02 9.264213e-02 0.9957 -40.3899 67.1325)" class="st107" cx="702.9" cy="468.6" rx="7.2" ry="7.2"/>
			
				<ellipse transform="matrix(0.9957 -9.264213e-02 9.264213e-02 0.9957 -40.379 66.9724)" class="st108" cx="701.2" cy="468.4" rx="7.2" ry="7.2"/>
			
				<ellipse transform="matrix(0.9957 -9.264218e-02 9.264218e-02 0.9957 -40.3681 66.8124)" class="st108" cx="699.5" cy="468.2" rx="7.2" ry="7.2"/>
			
				<ellipse transform="matrix(0.9957 -9.264214e-02 9.264214e-02 0.9957 -40.3571 66.6523)" class="st108" cx="697.7" cy="468" rx="7.2" ry="7.2"/>
			
				<ellipse transform="matrix(0.9957 -9.264207e-02 9.264207e-02 0.9957 -40.3508 66.4887)" class="st108" cx="696" cy="467.9" rx="7.2" ry="7.2"/>
			
				<ellipse transform="matrix(0.9957 -9.264208e-02 9.264208e-02 0.9957 -40.3439 66.3292)" class="st109" cx="694.3" cy="467.7" rx="7.2" ry="7.2"/>
			<circle class="st109" cx="692.5" cy="467.6" r="7.2"/>
			<circle class="st109" cx="690.8" cy="467.4" r="7.2"/>
			<circle class="st109" cx="689" cy="467.3" r="7.2"/>
			<circle class="st109" cx="687.3" cy="467.2" r="7.2"/>
			<circle class="st110" cx="685.6" cy="467.1" r="7.2"/>
			<circle class="st110" cx="683.8" cy="467" r="7.2"/>
			<circle class="st110" cx="682.1" cy="467" r="7.2"/>
			<circle class="st110" cx="680.3" cy="466.9" r="7.2"/>
			<circle class="st111" cx="678.6" cy="466.9" r="7.2"/>
			<circle class="st112" cx="676.9" cy="466.9" r="7.2"/>
			<circle class="st112" cx="675.1" cy="466.9" r="7.2"/>
			<circle class="st112" cx="673.3" cy="466.9" r="7.2"/>
			<circle class="st112" cx="671.6" cy="466.9" r="7.2"/>
			<circle class="st113" cx="669.8" cy="466.9" r="7.2"/>
			<circle class="st113" cx="668.1" cy="467" r="7.2"/>
			<circle class="st113" cx="666.4" cy="467" r="7.2"/>
			<circle class="st113" cx="664.6" cy="467.1" r="7.2"/>
			<circle class="st114" cx="662.8" cy="467.1" r="7.2"/>
			<circle class="st114" cx="661.1" cy="467.2" r="7.2"/>
			<circle class="st114" cx="659.3" cy="467.3" r="7.2"/>
			<circle class="st114" cx="657.6" cy="467.5" r="7.2"/>
			<circle class="st114" cx="655.8" cy="467.6" r="7.2"/>
			<circle class="st115" cx="654.1" cy="467.7" r="7.2"/>
			<circle class="st115" cx="652.3" cy="467.9" r="7.2"/>
			<circle class="st116" cx="650.6" cy="468.1" r="7.2"/>
			<circle class="st116" cx="648.8" cy="468.2" r="7.2"/>
			<circle class="st117" cx="647.1" cy="468.4" r="7.2"/>
			<circle class="st117" cx="645.3" cy="468.6" r="7.2"/>
			<circle class="st117" cx="643.5" cy="468.8" r="7.2"/>
			<circle class="st117" cx="641.8" cy="469.1" r="7.2"/>
			<circle class="st117" cx="640" cy="469.3" r="7.2"/>
			<circle class="st118" cx="638.3" cy="469.6" r="7.2"/>
			<circle class="st118" cx="636.6" cy="469.8" r="7.2"/>
			<circle class="st118" cx="634.8" cy="470.1" r="7.2"/>
			<circle class="st118" cx="633.1" cy="470.4" r="7.3"/>
			<circle class="st119" cx="631.3" cy="470.7" r="7.3"/>
			<circle class="st119" cx="629.6" cy="471" r="7.3"/>
			<circle class="st119" cx="627.8" cy="471.3" r="7.3"/>
			<circle class="st119" cx="626.1" cy="471.7" r="7.3"/>
			<circle class="st120" cx="624.3" cy="472" r="7.3"/>
			<circle class="st121" cx="622.6" cy="472.4" r="7.3"/>
			<circle class="st121" cx="620.9" cy="472.7" r="7.3"/>
			<circle class="st121" cx="619.1" cy="473.1" r="7.3"/>
			<circle class="st121" cx="617.4" cy="473.5" r="7.3"/>
			<circle class="st122" cx="615.6" cy="474" r="7.3"/>
			<circle class="st122" cx="613.9" cy="474.4" r="7.3"/>
			<circle class="st122" cx="612.2" cy="474.8" r="7.3"/>
			<circle class="st122" cx="610.5" cy="475.2" r="7.3"/>
			<circle class="st122" cx="608.7" cy="475.7" r="7.3"/>
			<circle class="st123" cx="607" cy="476.1" r="7.3"/>
			<circle class="st123" cx="605.3" cy="476.7" r="7.3"/>
			<circle class="st123" cx="603.6" cy="477.1" r="7.3"/>
			<circle class="st123" cx="601.9" cy="477.6" r="7.3"/>
			<circle class="st149" cx="600.2" cy="478.2" r="7.3"/>
			<circle class="st124" cx="598.5" cy="478.7" r="7.3"/>
			<circle class="st124" cx="596.7" cy="479.2" r="7.3"/>
			<circle class="st124" cx="595" cy="479.8" r="7.3"/>
			<circle class="st124" cx="593.3" cy="480.3" r="7.3"/>
			<circle class="st125" cx="591.6" cy="480.9" r="7.3"/>
			<circle class="st125" cx="590" cy="481.5" r="7.3"/>
			<circle class="st125" cx="588.2" cy="482.1" r="7.3"/>
			<circle class="st125" cx="586.5" cy="482.7" r="7.3"/>
			<circle class="st125" cx="584.8" cy="483.3" r="7.3"/>
			<circle class="st126" cx="583.2" cy="483.9" r="7.3"/>
			<circle class="st126" cx="581.5" cy="484.6" r="7.3"/>
			<circle class="st126" cx="579.8" cy="485.2" r="7.3"/>
			<circle class="st126" cx="578.1" cy="485.9" r="7.3"/>
			<circle class="st127" cx="576.5" cy="486.5" r="7.3"/>
			
				<ellipse transform="matrix(0.9957 -9.264210e-02 9.264210e-02 0.9957 -42.6622 55.3478)" class="st128" cx="574.8" cy="487.2" rx="7.3" ry="7.3"/>
			
				<ellipse transform="matrix(0.9957 -9.264210e-02 9.264210e-02 0.9957 -42.7337 55.1951)" class="st128" cx="573.1" cy="487.9" rx="7.3" ry="7.3"/>
			
				<ellipse transform="matrix(0.9957 -9.264211e-02 9.264211e-02 0.9957 -42.8086 55.0471)" class="st128" cx="571.5" cy="488.6" rx="7.3" ry="7.3"/>
			
				<ellipse transform="matrix(0.9957 -9.264209e-02 9.264209e-02 0.9957 -42.8801 54.8943)" class="st128" cx="569.8" cy="489.3" rx="7.3" ry="7.3"/>
			
				<ellipse transform="matrix(0.9957 -9.264211e-02 9.264211e-02 0.9957 -42.9551 54.7463)" class="st129" cx="568.2" cy="490" rx="7.3" ry="7.3"/>
			
				<ellipse transform="matrix(0.9957 -9.264206e-02 9.264206e-02 0.9957 -43.03 54.5983)" class="st129" cx="566.6" cy="490.8" rx="7.3" ry="7.3"/>
			
				<ellipse transform="matrix(0.9957 -9.264210e-02 9.264210e-02 0.9957 -43.1056 54.4462)" class="st129" cx="564.9" cy="491.5" rx="7.3" ry="7.3"/>
			
				<ellipse transform="matrix(0.9957 -9.264211e-02 9.264211e-02 0.9957 -43.1846 54.2987)" class="st129" cx="563.3" cy="492.3" rx="7.3" ry="7.3"/>
			
				<ellipse transform="matrix(0.9957 -9.264209e-02 9.264209e-02 0.9957 -43.2637 54.1512)" class="st130" cx="561.6" cy="493.1" rx="7.3" ry="7.3"/>
			
				<ellipse transform="matrix(0.9957 -9.264210e-02 9.264210e-02 0.9957 -43.3428 54.0038)" class="st130" cx="560" cy="493.8" rx="7.3" ry="7.3"/>
			
				<ellipse transform="matrix(0.9957 -9.264204e-02 9.264204e-02 0.9957 -43.4218 53.8563)" class="st130" cx="558.4" cy="494.6" rx="7.3" ry="7.3"/>
			
				<ellipse transform="matrix(0.9957 -9.264203e-02 9.264203e-02 0.9957 -43.505 53.7094)" class="st130" cx="556.8" cy="495.4" rx="7.3" ry="7.3"/>
			
				<ellipse transform="matrix(0.9957 -9.264205e-02 9.264205e-02 0.9957 -43.5875 53.5666)" class="st130" cx="555.2" cy="496.3" rx="7.3" ry="7.3"/>
			
				<ellipse transform="matrix(0.9957 -9.264217e-02 9.264217e-02 0.9957 -43.6707 53.4198)" class="st131" cx="553.5" cy="497.1" rx="7.3" ry="7.3"/>
			
				<ellipse transform="matrix(0.9957 -9.264217e-02 9.264217e-02 0.9957 -43.7539 53.2729)" class="st131" cx="551.9" cy="497.9" rx="7.3" ry="7.3"/>
			
				<ellipse transform="matrix(0.9957 -9.264214e-02 9.264214e-02 0.9957 -43.8365 53.1301)" class="st132" cx="550.3" cy="498.7" rx="7.3" ry="7.3"/>
			
				<ellipse transform="matrix(0.9957 -9.264217e-02 9.264217e-02 0.9957 -43.9237 52.9838)" class="st132" cx="548.7" cy="499.6" rx="7.3" ry="7.3"/>
			
				<ellipse transform="matrix(0.9957 -9.264220e-02 9.264220e-02 0.9957 -44.0104 52.8416)" class="st133" cx="547.2" cy="500.5" rx="7.3" ry="7.3"/>
			
				<ellipse transform="matrix(0.9957 -9.264208e-02 9.264208e-02 0.9957 -44.1011 52.6998)" class="st133" cx="545.6" cy="501.4" rx="7.3" ry="7.3"/>
			
				<ellipse transform="matrix(0.9957 -9.264212e-02 9.264212e-02 0.9957 -44.1878 52.5576)" class="st133" cx="544" cy="502.2" rx="7.3" ry="7.3"/>
			
				<ellipse transform="matrix(0.9957 -9.264207e-02 9.264207e-02 0.9957 -44.2786 52.416)" class="st133" cx="542.4" cy="503.1" rx="7.3" ry="7.3"/>
			
				<ellipse transform="matrix(0.9957 -9.264216e-02 9.264216e-02 0.9957 -44.3694 52.2744)" class="st133" cx="540.9" cy="504" rx="7.3" ry="7.3"/>
			
				<ellipse transform="matrix(0.9957 -9.264212e-02 9.264212e-02 0.9957 -44.4601 52.1327)" class="st134" cx="539.3" cy="504.9" rx="7.3" ry="7.3"/>
			
				<ellipse transform="matrix(0.9957 -9.264214e-02 9.264214e-02 0.9957 -44.5544 51.9957)" class="st134" cx="537.8" cy="505.9" rx="7.3" ry="7.3"/>
			
				<ellipse transform="matrix(0.9957 -9.264205e-02 9.264205e-02 0.9957 -44.6451 51.854)" class="st134" cx="536.2" cy="506.8" rx="7.3" ry="7.3"/>
			
				<ellipse transform="matrix(0.9957 -9.264213e-02 9.264213e-02 0.9957 -44.74 51.713)" class="st134" cx="534.6" cy="507.8" rx="7.3" ry="7.3"/>
			
				<ellipse transform="matrix(0.9957 -9.264206e-02 9.264206e-02 0.9957 -44.8384 51.5765)" class="st135" cx="533.1" cy="508.7" rx="7.3" ry="7.3"/>
			
				<ellipse transform="matrix(0.9957 -9.264210e-02 9.264210e-02 0.9957 -44.9327 51.4396)" class="st135" cx="531.6" cy="509.7" rx="7.3" ry="7.3"/>
			
				<ellipse transform="matrix(0.9957 -9.264208e-02 9.264208e-02 0.9957 -45.031 51.3031)" class="st135" cx="530.1" cy="510.7" rx="7.3" ry="7.3"/>
			
				<ellipse transform="matrix(0.9957 -9.264210e-02 9.264210e-02 0.9957 -45.1294 51.1667)" class="st136" cx="528.6" cy="511.7" rx="7.3" ry="7.3"/>
			
				<ellipse transform="matrix(0.9957 -9.264212e-02 9.264212e-02 0.9957 -45.2278 51.0303)" class="st136" cx="527" cy="512.7" rx="7.3" ry="7.3"/>
			
				<ellipse transform="matrix(0.9957 -9.264212e-02 9.264212e-02 0.9957 -45.3262 50.8939)" class="st137" cx="525.5" cy="513.7" rx="7.3" ry="7.3"/>
			
				<ellipse transform="matrix(0.9957 -9.264211e-02 9.264211e-02 0.9957 -45.4286 50.7581)" class="st137" cx="524" cy="514.7" rx="7.3" ry="7.3"/>
			
				<ellipse transform="matrix(0.9957 -9.264213e-02 9.264213e-02 0.9957 -45.5305 50.6263)" class="st137" cx="522.5" cy="515.7" rx="7.3" ry="7.3"/>
			<circle class="st137" cx="521.1" cy="516.8" r="7.4"/>
			<circle class="st137" cx="519.5" cy="517.8" r="7.4"/>
			<circle class="st138" cx="518.1" cy="518.9" r="7.4"/>
			<circle class="st138" cx="516.6" cy="519.9" r="7.4"/>
			<circle class="st138" cx="515.1" cy="521" r="7.4"/>
			<circle class="st138" cx="513.7" cy="522.1" r="7.4"/>
			<circle class="st139" cx="512.3" cy="523.2" r="7.4"/>
			<circle class="st139" cx="510.8" cy="524.3" r="7.4"/>
			<circle class="st139" cx="509.4" cy="525.4" r="7.4"/>
			<circle class="st139" cx="508" cy="526.6" r="7.4"/>
			
				<ellipse transform="matrix(6.804769e-02 -0.9977 0.9977 6.804769e-02 -54.3738 997.1509)" class="st150" cx="506.6" cy="527.7" rx="7.4" ry="7.4"/>
			<circle class="st140" cx="505.1" cy="528.8" r="7.4"/>
			<circle class="st140" cx="503.7" cy="530" r="7.4"/>
			<circle class="st140" cx="502.4" cy="531.2" r="7.4"/>
			<circle class="st140" cx="500.9" cy="532.3" r="7.4"/>
			<circle class="st141" cx="499.6" cy="533.5" r="7.4"/>
			<circle class="st141" cx="498.2" cy="534.7" r="7.4"/>
			<circle class="st141" cx="496.8" cy="535.9" r="7.4"/>
		</g>
	</g>
</g>
</svg>
