<svg id="Layer_1" data-name="Layer 1" xmlns="http://www.w3.org/2000/svg" viewBox="0 0 982.38 434.51"><defs><style>.cls-1{fill:#df6393;}.cls-2{fill:#29b7e2;}.cls-3{fill:#0073c6;}</style></defs><path class="cls-1" d="M985.26,348.8,953,324.57a5.6,5.6,0,0,1-1.11-7.83l6.8-9A16,16,0,0,1,970,301.34a16.94,16.94,0,0,1,12.68,3.23L996.52,315a17.17,17.17,0,0,1,3.37,23.67l-6.8,9.05A5.6,5.6,0,0,1,985.26,348.8Z" transform="translate(-20.81 -301.19)"/><path class="cls-2" d="M973.48,373.8,866.57,516.17a16.66,16.66,0,0,1-11,6.48L836,525.44a9.67,9.67,0,0,1-11-8.22l-2.8-19.66a16.62,16.62,0,0,1,3.17-12.33L932.28,342.86a18,18,0,0,1,25.14-3.58l12.49,9.38A18,18,0,0,1,973.48,373.8Z" transform="translate(-20.81 -301.19)"/><path class="cls-3" d="M503.5,527.71a28.37,28.37,0,0,1-19-2.71l-4.28-2.31,17.7,83.91a20.55,20.55,0,0,1-3.89,10.61,13.52,13.52,0,0,1-8.16,5.67q-7.27,1.53-9.34-8.26l-41.13-195q.15-7.64,1.87-11.21t6.91-4.67c3.45-.73,5.85-.4,7.21,1s3.53,5.44,6.52,12.21q-.06-5.82,6.77-12.24t20-9.18q28.53-6,44.92,12.14T551.93,454q5.93,28.11-7,47.93T503.5,527.71Zm-39-79.43,11,52a20.05,20.05,0,0,1,4.5,2q9.64,5.57,19.16,3.55Q537.79,497.7,529.4,458q-7.14-33.84-26.37-39.14-8.1-2.37-18.73-.14a29.57,29.57,0,0,0-15.7,12.81Q462.94,440.74,464.54,448.28Z" transform="translate(-20.81 -301.19)"/><path class="cls-3" d="M77.09,424.55q18.18-3.84,32.2-.37t16,13a12.86,12.86,0,0,1-.57,7.72,7.1,7.1,0,0,1-5.5,4.37q-4.07.86-18.81-2.6t-25.81-1.13q-11.06,2.33-21.32,11.8t-8.15,19.54Q48.07,490.57,63.69,494q11.63,2.52,32.29,2.1t35.69,8.54q15,9,20,32.45,7.56,35.8-10.38,57.41-10,12-32,16.68T63,608.38q-15.87-4.54-17.46-12.1a11.21,11.21,0,0,1,1.08-6.65,18.89,18.89,0,0,1,5.4-7q3.72-3.12,7.54-2.33T72,583.39q8.66,2.26,12.59,2.89a63.52,63.52,0,0,0,23-.18q10.35-2.19,17.85-14.43t4.37-27.07q-4.14-19.58-25.37-23.28A99.9,99.9,0,0,0,81.73,520q-25.83.79-40.64-7.05t-19.28-29.1q-4.48-21.24,11.13-37.26T77.09,424.55Z" transform="translate(-20.81 -301.19)"/><path class="cls-3" d="M160.2,464l14.05-2.67a24.87,24.87,0,0,0,5.25-1.4l-12.1-57.35q-.72-4.8,3-9.11t7.68-5.13a8.47,8.47,0,0,1,6.83,1.19c1.93,1.34,3.18,3.81,3.75,7.39s4.56,23,12,58.24l32.49-8q8.4-1.77,10.46,8,1.53,7.28-2,11.82a15.89,15.89,0,0,1-8.41,5.86q-4.83,1.32-9.59,2.32l-17.12,3.32q2.42,11.47,11.94,44.81t13,43q3.5,9.65,3.27,12.75a6.24,6.24,0,0,1-2.22,4.71,24.2,24.2,0,0,1-9.43,3.74q-6.16,1.31-8.69-5.18-13.33-35.46-28.8-99.1-2.46.81-19.24,4.35t-18.85-6.25Q144.54,467.3,160.2,464Z" transform="translate(-20.81 -301.19)"/><path class="cls-3" d="M258.16,395.11q5-1,10.51,2.75t6.57,9q1.1,5.17-2.68,11.52t-9.09,7.47q-5.33,1.13-10.6-2.44a16.12,16.12,0,0,1-6.75-10.55q-2.84-13.44,11.48-17.62Zm42.67,144.1,4.41,19.52a11.21,11.21,0,0,1-2.34,9.7,14,14,0,0,1-8.21,5.38q-7,1.49-8.75-5.46-22.47-88.46-24.47-98T257.41,447q-.5-5.14,5.37-6.39,14.84-3.12,19.32,8.49a77.68,77.68,0,0,1,2.91,9.61l2.6,17.86Z" transform="translate(-20.81 -301.19)"/><path class="cls-3" d="M540.18,331.09q-1.53-10.63.46-14.42c1.32-2.51,3.94-4.19,7.85-5q12-2.55,14.1,7.25,1.59,7.54,7.06,39.7t10.78,57.33q5.31,25.19,10.51,40.15,9,26.15,15.18,24.85t7.4-10.62a16.47,16.47,0,0,1,3.21-7,11.81,11.81,0,0,1,7.27-4.31q9.79-2.07,13.27,14.44,1.89,9-5.9,19.8t-17.3,12.85q-9.52,2-15.93,0a24.17,24.17,0,0,1-11.26-7.7,85.29,85.29,0,0,1-8.22-11.27,64.67,64.67,0,0,1-6-14.07q-4.64-13.62-11.85-44.39t-13.15-58.87Q541.69,341.72,540.18,331.09Z" transform="translate(-20.81 -301.19)"/><path class="cls-3" d="M666.45,358.35a52.45,52.45,0,0,1,30.08,2.71q15.26,5.85,17.94,18.57t-5.72,26.92q-8.4,14.19-26,20.54-7.61,2.78-23.26,6.08,8.09,23.13,18.64,28.79a9.89,9.89,0,0,0,8.2,1.48q17.34-3.66,26.76-17.19t14.45-14.59q2.24-.46,7.6,2.78t6.13,6.89q1.53,7.28-13.2,24.7a70.9,70.9,0,0,1-16.61,14.75,57.63,57.63,0,0,1-19.64,8.67q-24.35,5.15-42.42-23.77-11.34-17.76-16.24-41t2.47-42.31Q642.94,363.31,666.45,358.35Zm5.47,19q-10.63,2.24-15.65,15.86-1.9,4.78-1.3,20.14,39.16-8.25,35.09-27.56Q687.59,374.06,671.92,377.36Z" transform="translate(-20.81 -301.19)"/><path class="cls-3" d="M755.71,348a42.28,42.28,0,0,1,25.21-15.54,82.79,82.79,0,0,1,31-.69q15.45,2.58,17.39,11.81a9.22,9.22,0,0,1-2,8.32c-2,2.38-3.94,3.76-5.71,4.13s-3.18.62-4.22.74S812.17,356,805,354s-13.42-2.43-18.83-1.29a23.86,23.86,0,0,0-13,7q-4.87,5.26-3.22,13.1a14.41,14.41,0,0,0,9.17,10.92q7.51,3.09,24.7,2.82t27.23,3.75q10,4,13.41,20,4.9,23.22-5.23,35.44T811.8,461.5q-17.35,3.66-30.52,1.47t-15.18-11.7q-2.29-10.9,8.61-13.21,2.79-.58,13.14,1.32a50.37,50.37,0,0,0,19.7-.06q9.38-2,13-9a21.76,21.76,0,0,0,2-14.88q-1.65-7.83-8.82-10t-20.79-1.6q-13.62.54-20.3-.69-18.21-3.16-23.1-26.38Q746,360.26,755.71,348Z" transform="translate(-20.81 -301.19)"/><path class="cls-2" d="M149.63,722.81c-.32,2.62.33-2,.43-2.52.26-1.39.55-2.76.88-4.13a93.76,93.76,0,0,1,2.93-9.86c.47-1.34,1-2.66,1.51-4,.74-1.94-.77,1.57.14-.3.35-.74.67-1.49,1-2.23q2.1-4.45,4.57-8.71a144.56,144.56,0,0,1,8.66-13c.86-1.18-.52.63-.54.69a8.67,8.67,0,0,1,1.21-1.52c.82-1,1.65-2,2.49-3,1.69-2,3.44-3.9,5.24-5.78a153.32,153.32,0,0,1,11.46-10.76c.88-.75,1.78-1.49,2.67-2.22l1.56-1.24c.32-.26,2-1.55.66-.53s.08,0,.28-.2l1.61-1.19q1.83-1.33,3.68-2.62A198.17,198.17,0,0,1,228,633.68q3.51-1.68,7.1-3.23c.37-.16,2.42-1,.86-.38s.17-.07.39-.16c1.62-.65,3.24-1.3,4.88-1.93q7.62-2.94,15.44-5.36a268.61,268.61,0,0,1,32.5-7.91q3.92-.71,7.86-1.3l3.67-.53c-3.1.43,1.42-.16,2.36-.27q10.32-1.18,20.69-1.73c13.84-.75,27.72-.71,41.57-.08,13.67.62,27.31,1.82,40.9,3.4,3.52.4,7,.84,10.54,1.29l2.63.35c-.28,0-1.65-.23-.13,0l5.92.83q10.53,1.5,21,3.21c27.49,4.43,54.86,9.63,82.36,14,55.58,8.83,112.25,14.53,168.11,4.68,47.31-8.35,97.69-31,121.25-75.4A110.66,110.66,0,0,0,825,546.65c2.17-6.38-2.49-14.35-9-15.83-7.14-1.63-13.52,2.15-15.84,9-.43,1.27-.88,2.53-1.36,3.78-.24.63-.5,1.25-.75,1.87.17-.4,1.11-2.45.09-.3-1.15,2.44-2.34,4.86-3.68,7.21s-2.6,4.39-4,6.5c-.67,1-1.36,2-2.06,3-.4.56-.82,1.1-1.23,1.66,1.8-2.46-.28.32-.54.64a117.34,117.34,0,0,1-11.14,11.81c-1.95,1.81-4,3.56-6,5.24-.63.51-3.8,2.87-1.61,1.29-1.16.83-2.3,1.71-3.47,2.53a144.35,144.35,0,0,1-15,9.27c-2.59,1.4-5.22,2.72-7.88,4q-2.15,1-4.3,2l-1.63.7c2.43-1-1.13.45-1.3.51a217.62,217.62,0,0,1-36.14,10.7c-6.11,1.28-12.27,2.3-18.45,3.2,2.35-.34.28,0-.17,0l-2.52.31c-1.75.21-3.5.41-5.26.59-3.5.36-7,.66-10.53.92a402.73,402.73,0,0,1-41.55.72c-13.9-.45-27.77-1.53-41.59-3q-4.95-.52-9.89-1.13l-5.27-.66-2-.26c-4.32-.56,2.48.35-1.85-.24q-10.2-1.41-20.38-3c-55.92-8.74-111.45-21-168.09-24.23-50.52-2.84-101.28,2.51-148,22.69-41.58,18-80.21,50-94.47,94.32a108.2,108.2,0,0,0-4.19,20.48c-.81,6.71,6.5,13.16,12.87,12.88,7.67-.35,12-5.69,12.88-12.88Z" transform="translate(-20.81 -301.19)"/><path class="cls-3" d="M383.79,553a28.3,28.3,0,0,1-19-2.72l-4.29-2.31,17.7,83.92a20.62,20.62,0,0,1-3.89,10.61,13.52,13.52,0,0,1-8.16,5.67q-7.28,1.53-9.34-8.26l-41.13-195q.15-7.62,1.87-11.2c1.15-2.39,3.45-3.94,6.91-4.67s5.85-.41,7.21,1,3.53,5.44,6.52,12.21q-.06-5.83,6.77-12.24t20-9.18q28.53-6,44.92,12.14t22.33,46.28q5.93,28.11-7,47.92T383.79,553Zm-39-79.43,11,52a19.67,19.67,0,0,1,4.5,2q9.65,5.57,19.16,3.55,38.61-8.15,30.22-47.86-7.14-33.84-26.37-39.14-8.1-2.38-18.73-.14a29.57,29.57,0,0,0-15.7,12.81Q343.23,466,344.82,473.54Z" transform="translate(-20.81 -301.19)"/></svg>