<svg id="Layer_1" data-name="Layer 1" xmlns="http://www.w3.org/2000/svg" viewBox="0 0 1009.58 843.42"><defs><style>.cls-1{fill:#1863a1;}</style></defs><path class="cls-1" d="M10.11,839.2c109.61,7.92,208.54-20,300.37-88.06-86.41-9.59-147.17-48.07-184.84-121.87A18.39,18.39,0,0,1,142,602.54h58.53c-85.26-32-138-86.45-155.7-168.19a27.14,27.14,0,0,1,33.71-32l48,13.25,2.69-5.35c-50.61-39.68-81.43-90.39-86.85-154.72-2.71-32.25.88-63.23,12.58-93.32a22,22,0,0,1,36.58-7.12C203,274.49,340.09,340.39,505.57,352.5c-.88-20-3.21-38.14-2.23-56.11C508.16,208.17,550.82,143.5,631.68,109S789,88.25,856,145.4c11.57,9.86,21.22,13.59,34.83,8.43,30.63-11.62,61.32-23.12,91.91-34.83l.18-.07a9.5,9.5,0,0,1,12,12.85c-17.13,37.24-42.67,64.88-74.54,87.93l2.43,5.12,81.93-22.32a9.48,9.48,0,0,1,10.06,14.84c-18.35,24.43-38.76,46-62.59,63.77-18.84,14.08-24.45,29.11-24.71,52.31C924.39,616.54,732.83,858.15,463.06,918c-150.66,33.39-295.18,13.94-431.4-60.31C23.6,853.25,15.8,848.37,8,843.54a1.46,1.46,0,0,1-.51-.6A2.65,2.65,0,0,1,10.11,839.2Z" transform="translate(-7.21 -90.29)"/></svg>