<?xml version="1.0" encoding="utf-8"?>
<!-- Generator: Adobe Illustrator 26.0.1, SVG Export Plug-In . SVG Version: 6.00 Build 0)  -->
<svg version="1.1" id="Layer_1" xmlns="http://www.w3.org/2000/svg" xmlns:xlink="http://www.w3.org/1999/xlink" x="0px" y="0px"
	 viewBox="0 0 1024 1024" style="enable-background:new 0 0 1024 1024;" xml:space="preserve">
<style type="text/css">
	.st0{fill:#0096DF;}
</style>
<path class="st0" d="M919.2,303.1c0.6,9,0.6,18.1,0.6,27.2C919.8,607.9,708.5,928,322,928v-0.2C207.9,928,96.1,895.3,0,833.7
	c16.6,2,33.3,3,50,3c94.6,0.1,186.5-31.7,260.9-90.1c-89.9-1.7-168.7-60.3-196.3-145.9c31.5,6.1,63.9,4.8,94.8-3.6
	C111.5,577.3,41,491.2,41,391.2v-2.7c29.2,16.3,61.9,25.3,95.3,26.3C44,353.1,15.6,230.3,71.3,134.3c106.7,131.3,264,211,433,219.5
	c-16.9-73,6.2-149.4,60.8-200.7c84.6-79.5,217.7-75.5,297.2,9.1c47.1-9.3,92.1-26.5,133.4-51c-15.7,48.6-48.5,89.9-92.4,116.2
	c41.6-4.9,82.3-16.1,120.6-33.1C995.8,236.5,960.3,273.4,919.2,303.1L919.2,303.1z"/>
</svg>
